<?xml version="1.0" encoding="utf-8"?>
<!-- Generator: Adobe Illustrator 27.5.0, SVG Export Plug-In . SVG Version: 6.00 Build 0)  -->
<svg version="1.1" id="Layer_1" xmlns="http://www.w3.org/2000/svg" xmlns:xlink="http://www.w3.org/1999/xlink" x="0px" y="0px"
	 viewBox="0 0 450 450" style="enable-background:new 0 0 450 450;" xml:space="preserve">
<rect style="fill:#9CD8E2;" width="450" height="450"/>
<g>
	<g>
		<path style="fill:#DDEFF2;" d="M154.727,320.21l5.072,2.941c0,0-4.011,2.738-4.026,2.738
			C155.759,325.89,154.727,320.21,154.727,320.21z"/>
		<path style="fill:#DDEFF2;" d="M94.811,358.127c0.982-3.109,3.117-5.785,5.099-6.598c1.918-5.316,5.911-9.666,9.212-9.945
			c2.486-5.166,6.435-9.169,9.896-9.811c2.642-5.539,6.968-9.768,10.588-9.986c3.108-0.192,4.846,2.61,4.765,6.825
			c1.46-1.469,3.031-2.411,4.474-2.569c2.042-4.315,5.405-7.614,8.221-7.786c1.846-0.115,3.066,1.141,3.508,3.203
			c0.982-0.881,2.009-1.441,2.954-1.501c1.876-0.111,2.844,1.752,2.595,4.448l-6.165,3.56l-3.584,2.067l-3.703,2.139l-5.378,3.105
			l-4.49,2.592l-1.257,0.728l-2.489,1.437l-5.317,3.069l-5.548,3.203l-2.984,1.723l-2.428,1.402l-5.908,3.408l-1.771,2.678
			l-5.582,7.486l-5.122-2.959C94.476,359.438,94.594,358.805,94.811,358.127z"/>
		<polygon style="fill:#DDEFF2;" points="148.837,318.656 153.675,321.468 150.147,323.05 147.897,320.48 		"/>
		<polygon style="fill:#DDEFF2;" points="132.033,322.389 136.421,324.977 132.45,327.546 130.065,325.298 		"/>
		<path style="fill:#F0FAFC;" d="M99.932,361.086c0.984-3.111,3.118-5.783,5.1-6.596c1.92-5.318,5.911-9.668,9.213-9.947
			c2.487-5.166,6.435-9.167,9.896-9.81c2.642-5.54,6.966-9.769,10.59-9.987c3.106-0.192,4.844,2.609,4.763,6.826
			c1.458-1.47,3.03-2.412,4.472-2.569c2.043-4.315,5.406-7.616,8.223-7.786c1.848-0.115,3.067,1.141,3.509,3.203
			c0.98-0.882,2.006-1.442,2.953-1.501c1.877-0.113,2.845,1.751,2.595,4.448l-6.165,3.558l-3.585,2.07l-3.702,2.138l-5.379,3.104
			l-4.489,2.593l-1.259,0.727l-2.49,1.438l-5.318,3.068l-5.547,3.203l-2.982,1.723l-2.43,1.4l-5.908,3.412l-3.513,2.029l-4.504,2.6
			l-4.458,2.574C99.598,362.397,99.718,361.764,99.932,361.086z"/>
	</g>
	<g>
		<path style="fill:#E2E7E8;" d="M233.94,394.756l149.316-86.248l-57.544-33.224l-157.652,90.987c0,0,33.371,19.086,44.389,25.624
			C219.839,396.278,229.89,395.996,233.94,394.756z"/>
		<linearGradient id="SVGID_1_" gradientUnits="userSpaceOnUse" x1="264.5268" y1="303.9476" x2="297.299" y2="358.9055">
			<stop  offset="0" style="stop-color:#EEF0F3"/>
			<stop  offset="0.5991" style="stop-color:#ECEFF2"/>
			<stop  offset="0.8146" style="stop-color:#E5EAEE"/>
			<stop  offset="0.9679" style="stop-color:#DAE1E7"/>
			<stop  offset="1" style="stop-color:#D6DEE5"/>
		</linearGradient>
		<path style="fill:url(#SVGID_1_);" d="M378.665,299.066L326.246,268.5l-0.108-0.074h-0.003h-0.011v0.006l-149.093,87.354
			l56.674,39.052l150.131-86.818C383.836,304.728,381.527,300.712,378.665,299.066z"/>
		
			<linearGradient id="SVGID_00000067915102580810994760000013541018228345792897_" gradientUnits="userSpaceOnUse" x1="177.0308" y1="375.2929" x2="233.7051" y2="375.2929">
			<stop  offset="0" style="stop-color:#D3D7DD"/>
			<stop  offset="0.6042" style="stop-color:#D1D6DC"/>
			<stop  offset="0.8216" style="stop-color:#CAD1D8"/>
			<stop  offset="0.9763" style="stop-color:#BFC8D1"/>
			<stop  offset="1" style="stop-color:#BCC6CF"/>
		</linearGradient>
		<path style="fill:url(#SVGID_00000067915102580810994760000013541018228345792897_);" d="M228.534,385.881l-51.501-30.133
			l-0.002,5.965l56.674,33.125C233.705,391.542,231.389,387.529,228.534,385.881z"/>
		<polygon style="fill:#DDE4E8;" points="199.649,356.877 194.642,359.825 189.608,356.933 194.608,354.022 		"/>
		<polygon style="fill:#DDE4E8;" points="211,350.266 205.986,353.195 200.941,350.315 205.954,347.374 		"/>
		<polygon style="fill:#DDE4E8;" points="216.746,346.886 211.746,349.834 206.711,346.935 211.715,344.024 		"/>
		<polygon style="fill:#DDE4E8;" points="222.522,343.551 217.487,346.472 212.467,343.606 217.454,340.657 		"/>
		<polygon style="fill:#DDE4E8;" points="235.04,376.834 230.012,379.74 224.963,376.897 229.979,373.941 		"/>
		<polygon style="fill:#DDE4E8;" points="240.77,373.462 235.741,376.385 230.709,373.511 235.711,370.588 		"/>
		<polygon style="fill:#DDE4E8;" points="246.545,370.092 241.518,373.022 236.489,370.148 241.489,367.208 		"/>
		<polygon style="fill:#DDE4E8;" points="228.276,340.169 223.262,343.093 218.226,340.225 223.232,337.303 		"/>
		<polygon style="fill:#DDE4E8;" points="208.221,361.693 203.2,364.643 198.161,361.749 203.166,358.826 		"/>
		<polygon style="fill:#DDE4E8;" points="213.982,358.315 208.962,361.257 203.901,358.37 208.935,355.471 		"/>
		<polygon style="fill:#DDE4E8;" points="219.722,354.972 214.72,357.881 209.67,355.021 214.692,352.104 		"/>
		<polygon style="fill:#DDE4E8;" points="225.453,351.598 220.464,354.546 215.407,351.647 220.432,348.729 		"/>
		<polygon style="fill:#DDE4E8;" points="231.362,348.193 226.351,351.092 221.289,348.243 226.317,345.301 		"/>
		<polygon style="fill:#DDE4E8;" points="237.091,344.827 232.102,347.742 227.071,344.877 232.072,341.929 		"/>
		<polygon style="fill:#DDE4E8;" points="242.856,341.44 237.869,344.376 232.81,341.495 237.84,338.56 		"/>
		<polygon style="fill:#DDE4E8;" points="248.618,338.086 243.604,341.016 238.58,338.142 243.574,335.192 		"/>
		<polygon style="fill:#DDE4E8;" points="254.297,334.749 249.292,337.696 244.235,334.804 249.242,331.906 		"/>
		<polygon style="fill:#DDE4E8;" points="260.053,331.394 255.013,334.342 249.996,331.449 254.984,328.538 		"/>
		<polygon style="fill:#DDE4E8;" points="265.807,328.058 260.792,330.976 255.763,328.113 260.763,325.171 		"/>
		<polygon style="fill:#DDE4E8;" points="271.556,324.685 266.55,327.632 261.49,324.727 266.518,321.823 		"/>
		<polygon style="fill:#DDE4E8;" points="277.444,321.255 272.435,324.165 267.373,321.316 272.399,318.37 		"/>
		<polygon style="fill:#DDE4E8;" points="283.18,317.895 278.162,320.805 273.146,317.943 278.131,315.014 		"/>
		<polygon style="fill:#DDE4E8;" points="288.944,314.539 283.955,317.451 278.871,314.589 283.926,311.628 		"/>
		<polygon style="fill:#DDE4E8;" points="294.674,311.171 289.685,314.088 284.641,311.221 289.655,308.273 		"/>
		<polygon style="fill:#DDE4E8;" points="239.739,333.473 234.75,336.383 229.727,333.528 234.718,330.567 		"/>
		<polygon style="fill:#DDE4E8;" points="245.506,330.105 240.511,333.022 235.436,330.16 240.477,327.207 		"/>
		<polygon style="fill:#DDE4E8;" points="251.265,326.713 246.253,329.648 241.227,326.77 246.219,323.852 		"/>
		<polygon style="fill:#DDE4E8;" points="257.032,323.365 251.992,326.287 246.965,323.421 251.963,320.483 		"/>
		<polygon style="fill:#DDE4E8;" points="268.64,316.566 263.645,319.509 258.6,316.616 263.613,313.693 		"/>
		<polygon style="fill:#DDE4E8;" points="274.42,313.214 269.388,316.117 264.353,313.263 269.358,310.351 		"/>
		<polygon style="fill:#DDE4E8;" points="280.138,309.853 275.12,312.786 270.091,309.907 275.088,306.984 		"/>
		<polygon style="fill:#DDE4E8;" points="285.912,306.459 280.891,309.395 275.845,306.516 280.855,303.581 		"/>
		<polygon style="fill:#DDE4E8;" points="304.101,336.458 299.114,339.367 294.055,336.513 299.084,333.589 		"/>
		<polygon style="fill:#DDE4E8;" points="309.863,333.103 304.836,336.015 299.814,333.158 304.807,330.222 		"/>
		<polygon style="fill:#DDE4E8;" points="315.627,329.736 310.6,332.651 305.557,329.791 310.569,326.844 		"/>
		<polygon style="fill:#DDE4E8;" points="321.361,326.367 316.346,329.272 311.313,326.423 316.314,323.487 		"/>
		<polygon style="fill:#DDE4E8;" points="296.059,300.507 291.077,303.449 286.021,300.557 291.052,297.641 		"/>
		<polygon style="fill:#DDE4E8;" points="301.822,297.153 296.81,300.077 291.777,297.203 296.777,294.279 		"/>
		<polygon style="fill:#DDE4E8;" points="307.579,293.793 302.567,296.715 297.5,293.847 302.535,290.9 		"/>
		<polygon style="fill:#DDE4E8;" points="341.058,294.267 336.042,297.215 331,294.322 336.015,291.404 		"/>
		<polygon style="fill:#DDE4E8;" points="346.799,290.912 341.791,293.853 336.767,290.968 341.76,288.044 		"/>
		<polygon style="fill:#DDE4E8;" points="352.556,287.574 347.532,290.506 342.511,287.63 347.504,284.682 		"/>
		<polygon style="fill:#DDE4E8;" points="347.049,297.702 342.063,300.639 337.001,297.758 342.033,294.847 		"/>
		<polygon style="fill:#DDE4E8;" points="352.816,294.328 347.807,297.288 342.755,294.391 347.776,291.479 		"/>
		<polygon style="fill:#DDE4E8;" points="358.576,290.99 353.538,293.902 348.504,291.06 353.509,288.106 		"/>
		<polygon style="fill:#DDE4E8;" points="304.53,305.355 299.536,308.292 294.509,305.405 299.508,302.506 		"/>
		<polygon style="fill:#DDE4E8;" points="310.285,301.983 305.306,304.899 300.244,302.043 305.273,299.133 		"/>
		<polygon style="fill:#DDE4E8;" points="316.078,298.627 311.036,301.545 306.001,298.683 311.006,295.771 		"/>
		<polygon style="fill:#DDE4E8;" points="310.557,308.778 305.56,311.715 300.525,308.834 305.525,305.886 		"/>
		<polygon style="fill:#DDE4E8;" points="316.317,305.418 311.288,308.34 306.282,305.474 311.26,302.55 		"/>
		<polygon style="fill:#DDE4E8;" points="322.086,302.093 317.057,304.979 312.02,302.148 317.025,299.193 		"/>
		<polygon style="fill:#DDE4E8;" points="353.048,301.137 348.052,304.067 342.986,301.191 348.022,298.269 		"/>
		<polygon style="fill:#DDE4E8;" points="358.815,297.764 353.794,300.706 348.771,297.814 353.764,294.877 		"/>
		<polygon style="fill:#DDE4E8;" points="370.57,297.831 365.541,300.755 354.498,294.458 359.514,291.536 		"/>
		<polygon style="fill:#DDE4E8;" points="359.06,304.541 354.045,307.489 348.986,304.591 354.014,301.681 		"/>
		<polygon style="fill:#DDE4E8;" points="364.825,301.191 359.825,304.11 354.778,301.248 359.793,298.331 		"/>
		<polygon style="fill:#DDE4E8;" points="323.915,284.522 318.891,287.428 313.874,284.578 318.862,281.611 		"/>
		<polygon style="fill:#DDE4E8;" points="329.66,281.149 324.647,284.053 319.587,281.205 324.616,278.27 		"/>
		<polygon style="fill:#DDE4E8;" points="335.388,277.793 330.411,280.724 325.366,277.843 330.381,274.902 		"/>
		<polygon style="fill:#DDE4E8;" points="328.87,314.792 323.857,317.728 318.824,314.848 323.826,311.912 		"/>
		<polygon style="fill:#DDE4E8;" points="329.139,321.588 324.12,324.523 319.064,321.643 324.092,318.719 		"/>
		<polygon style="fill:#DDE4E8;" points="334.893,318.239 329.877,321.15 324.82,318.282 329.848,315.364 		"/>
		<polygon style="fill:#DDE4E8;" points="340.635,314.854 335.621,317.795 330.58,314.903 335.592,311.986 		"/>
		<polygon style="fill:#DDE4E8;" points="216.531,363.761 209.188,368.04 204.173,365.179 211.486,360.911 		"/>
		<polygon style="fill:#DDE4E8;" points="222.319,360.404 217.296,363.346 212.225,360.459 217.263,357.536 		"/>
		<polygon style="fill:#DDE4E8;" points="228.028,357.032 223.027,359.979 217.988,357.087 222.996,354.194 		"/>
		<polygon style="fill:#DDE4E8;" points="233.815,353.671 228.811,356.612 223.741,353.73 228.782,350.821 		"/>
		<polygon style="fill:#DDE4E8;" points="239.679,350.241 234.676,353.158 229.64,350.297 234.645,347.368 		"/>
		<polygon style="fill:#DDE4E8;" points="245.441,346.886 240.444,349.834 235.391,346.941 240.414,343.993 		"/>
		<polygon style="fill:#DDE4E8;" points="251.209,343.531 246.198,346.43 241.138,343.587 246.165,340.627 		"/>
		<polygon style="fill:#DDE4E8;" points="256.939,340.15 251.95,343.074 246.908,340.207 251.92,337.284 		"/>
		<polygon style="fill:#DDE4E8;" points="262.613,336.839 257.586,339.787 252.568,336.889 257.559,333.972 		"/>
		<polygon style="fill:#DDE4E8;" points="268.385,333.478 263.331,336.425 258.301,333.539 263.303,330.624 		"/>
		<polygon style="fill:#DDE4E8;" points="274.111,330.099 269.108,333.059 264.089,330.154 269.074,327.255 		"/>
		<polygon style="fill:#DDE4E8;" points="279.878,326.77 274.852,329.692 269.794,326.825 274.821,323.901 		"/>
		<polygon style="fill:#DDE4E8;" points="285.775,323.327 280.749,326.245 275.694,323.376 280.719,320.429 		"/>
		<polygon style="fill:#DDE4E8;" points="291.494,319.954 286.528,322.889 281.467,320.009 286.494,317.056 		"/>
		<polygon style="fill:#DDE4E8;" points="300.708,314.595 292.247,319.509 287.214,316.654 295.672,311.696 		"/>
		<polygon style="fill:#DDE4E8;" points="225.223,365.623 215.205,371.469 210.148,368.576 220.205,362.711 		"/>
		<polygon style="fill:#DDE4E8;" points="231.071,362.182 226.041,365.129 221.031,362.23 226.016,359.339 		"/>
		<polygon style="fill:#DDE4E8;" points="236.832,358.831 231.819,361.773 226.784,358.894 231.788,355.952 		"/>
		<polygon style="fill:#DDE4E8;" points="242.555,355.471 237.554,358.413 232.534,355.521 237.521,352.598 		"/>
		<polygon style="fill:#DDE4E8;" points="248.472,352.042 243.448,354.948 238.412,352.092 243.419,349.131 		"/>
		<polygon style="fill:#DDE4E8;" points="254.217,348.669 249.217,351.611 244.183,348.718 249.183,345.802 		"/>
		<polygon style="fill:#DDE4E8;" points="259.97,345.314 254.967,348.237 249.923,345.369 254.939,342.415 		"/>
		<polygon style="fill:#DDE4E8;" points="265.736,341.953 260.734,344.863 255.664,342.009 260.707,339.053 		"/>
		<polygon style="fill:#DDE4E8;" points="271.383,338.641 266.378,341.565 261.321,338.695 266.353,335.772 		"/>
		<polygon style="fill:#DDE4E8;" points="277.148,335.267 272.116,338.198 267.096,335.316 272.083,332.393 		"/>
		<polygon style="fill:#DDE4E8;" points="282.92,331.906 277.893,334.847 272.847,331.96 277.861,329.032 		"/>
		<polygon style="fill:#DDE4E8;" points="288.65,328.55 283.637,331.468 278.603,328.605 283.605,325.67 		"/>
		<polygon style="fill:#DDE4E8;" points="294.535,325.115 289.506,328.052 284.488,325.171 289.474,322.235 		"/>
		<polygon style="fill:#DDE4E8;" points="306.707,317.993 295.459,324.573 290.378,321.705 301.65,315.118 		"/>
		<polygon style="fill:#DDE4E8;" points="234.288,367.258 221.3,374.848 216.265,371.975 229.244,364.396 		"/>
		<polygon style="fill:#DDE4E8;" points="297.149,340.527 248.514,368.94 243.479,366.072 292.082,337.652 		"/>
		<polygon style="fill:#DDE4E8;" points="239.971,363.945 234.945,366.888 229.913,363.995 234.914,361.07 		"/>
		<polygon style="fill:#DDE4E8;" points="245.714,360.585 240.686,363.519 235.667,360.634 240.656,357.704 		"/>
		<polygon style="fill:#DDE4E8;" points="251.588,357.155 246.584,360.059 241.538,357.203 246.554,354.269 		"/>
		<polygon style="fill:#DDE4E8;" points="257.351,353.78 252.349,356.712 247.292,353.836 252.319,350.9 		"/>
		<polygon style="fill:#DDE4E8;" points="263.117,350.426 258.093,353.351 253.052,350.482 258.064,347.533 		"/>
		<polygon style="fill:#DDE4E8;" points="268.849,347.047 263.837,349.994 258.832,347.096 263.81,344.18 		"/>
		<polygon style="fill:#DDE4E8;" points="274.521,343.747 269.507,346.676 264.485,343.803 269.475,340.86 		"/>
		<polygon style="fill:#DDE4E8;" points="280.258,340.393 275.272,343.321 270.228,340.442 275.24,337.487 		"/>
		<polygon style="fill:#DDE4E8;" points="286.041,337.036 281.003,339.941 275.983,337.086 280.973,334.133 		"/>
		<polygon style="fill:#DDE4E8;" points="291.803,333.65 286.772,336.587 281.728,333.706 286.741,330.789 		"/>
		<polygon style="fill:#DDE4E8;" points="297.673,330.216 292.658,333.134 287.623,330.272 292.625,327.348 		"/>
		<polygon style="fill:#DDE4E8;" points="312.786,321.378 298.506,329.729 293.44,326.874 307.731,318.486 		"/>
		<polygon style="fill:#E2ECF2;" points="199.698,356.587 194.689,359.535 189.657,356.637 194.659,353.73 		"/>
		<polygon style="fill:#FFFFFF;" points="199.075,356.225 194.705,358.788 190.322,356.272 194.679,353.736 		"/>
		<polygon style="fill:#E2ECF2;" points="211.047,349.976 206.035,352.912 200.998,350.031 206.009,347.079 		"/>
		<polygon style="fill:#FFFFFF;" points="210.416,349.611 206.049,352.164 201.657,349.655 206.02,347.089 		"/>
		<polygon style="fill:#E2ECF2;" points="216.797,346.59 211.794,349.538 206.762,346.651 211.761,343.733 		"/>
		<polygon style="fill:#FFFFFF;" points="216.166,346.232 211.807,348.798 207.425,346.275 211.781,343.741 		"/>
		<polygon style="fill:#E2ECF2;" points="222.573,343.266 217.539,346.183 212.516,343.309 217.507,340.367 		"/>
		<polygon style="fill:#FFFFFF;" points="221.946,342.896 217.555,345.443 213.179,342.94 217.525,340.373 		"/>
		<polygon style="fill:#E2ECF2;" points="235.091,376.551 230.063,379.449 225.017,376.601 230.032,373.658 		"/>
		<polygon style="fill:#FFFFFF;" points="234.46,376.181 230.074,378.709 225.682,376.23 230.05,373.664 		"/>
		<polygon style="fill:#E2ECF2;" points="240.82,373.172 235.793,376.087 230.762,373.222 235.762,370.298 		"/>
		<polygon style="fill:#FFFFFF;" points="240.186,372.808 235.809,375.354 231.424,372.852 235.782,370.304 		"/>
		<polygon style="fill:#E2ECF2;" points="246.599,369.804 241.57,372.739 236.539,369.853 241.538,366.924 		"/>
		<polygon style="fill:#FFFFFF;" points="245.966,369.44 241.583,371.992 237.206,369.483 241.558,366.924 		"/>
		<polygon style="fill:#E2ECF2;" points="228.33,339.88 223.318,342.81 218.279,339.935 223.284,337.018 		"/>
		<polygon style="fill:#FFFFFF;" points="227.693,339.517 223.333,342.063 218.94,339.559 223.305,337.018 		"/>
		<polygon style="fill:#E2ECF2;" points="208.274,361.403 203.248,364.352 198.209,361.459 203.219,358.536 		"/>
		<polygon style="fill:#FFFFFF;" points="207.639,361.039 203.264,363.606 198.873,361.089 203.234,358.542 		"/>
		<polygon style="fill:#E2ECF2;" points="214.027,358.024 209.016,360.966 203.95,358.08 208.979,355.182 		"/>
		<polygon style="fill:#FFFFFF;" points="213.399,357.654 209.029,360.227 204.622,357.704 209,355.182 		"/>
		<polygon style="fill:#E2ECF2;" points="219.774,354.675 214.771,357.593 209.723,354.736 214.741,351.819 		"/>
		<polygon style="fill:#FFFFFF;" points="219.14,354.313 214.789,356.847 210.391,354.36 214.761,351.819 		"/>
		<polygon style="fill:#E2ECF2;" points="225.503,351.308 220.517,354.257 215.458,351.364 220.482,348.44 		"/>
		<polygon style="fill:#FFFFFF;" points="224.875,350.95 220.53,353.516 216.125,350.992 220.5,348.447 		"/>
		<polygon style="fill:#E2ECF2;" points="231.417,347.903 226.399,350.804 221.343,347.96 226.37,345.012 		"/>
		<polygon style="fill:#FFFFFF;" points="230.782,347.527 226.417,350.063 222.011,347.583 226.391,345.012 		"/>
		<polygon style="fill:#E2ECF2;" points="237.145,344.537 232.154,347.459 227.122,344.585 232.125,341.638 		"/>
		<polygon style="fill:#FFFFFF;" points="236.515,344.167 232.17,346.715 227.787,344.216 232.146,341.65 		"/>
		<polygon style="fill:#E2ECF2;" points="242.903,341.156 237.922,344.093 232.864,341.206 237.891,338.27 		"/>
		<polygon style="fill:#FFFFFF;" points="242.281,340.786 237.935,343.346 233.527,340.83 237.908,338.276 		"/>
		<polygon style="fill:#E2ECF2;" points="248.666,337.795 243.652,340.726 238.631,337.852 243.624,334.902 		"/>
		<polygon style="fill:#FFFFFF;" points="248.038,337.431 243.668,339.978 239.294,337.48 243.639,334.908 		"/>
		<polygon style="fill:#E2ECF2;" points="254.344,334.466 249.342,337.406 244.287,334.514 249.292,331.617 		"/>
		<polygon style="fill:#FFFFFF;" points="253.715,334.102 249.354,336.668 244.951,334.146 249.311,331.623 		"/>
		<polygon style="fill:#E2ECF2;" points="260.104,331.103 255.064,334.053 250.044,331.16 255.03,328.248 		"/>
		<polygon style="fill:#FFFFFF;" points="259.469,330.746 255.082,333.306 250.711,330.789 255.055,328.255 		"/>
		<polygon style="fill:#E2ECF2;" points="265.858,327.768 260.842,330.68 255.813,327.824 260.81,324.881 		"/>
		<polygon style="fill:#FFFFFF;" points="265.228,327.403 260.854,329.94 256.476,327.453 260.829,324.888 		"/>
		<polygon style="fill:#E2ECF2;" points="271.612,324.394 266.6,327.342 261.542,324.443 266.567,321.533 		"/>
		<polygon style="fill:#FFFFFF;" points="270.98,324.031 266.614,326.596 262.209,324.074 266.588,321.539 		"/>
		<polygon style="fill:#E2ECF2;" points="277.495,320.971 272.483,323.883 267.425,321.026 272.449,318.079 		"/>
		<polygon style="fill:#FFFFFF;" points="276.863,320.602 272.5,323.135 268.089,320.649 272.47,318.084 		"/>
		<polygon style="fill:#E2ECF2;" points="283.232,317.603 278.213,320.509 273.195,317.659 278.185,314.724 		"/>
		<polygon style="fill:#FFFFFF;" points="282.601,317.233 278.23,319.769 273.859,317.283 278.208,314.724 		"/>
		<polygon style="fill:#E2ECF2;" points="288.993,314.25 284.006,317.16 278.92,314.304 283.976,311.344 		"/>
		<polygon style="fill:#FFFFFF;" points="288.363,313.879 284.021,316.414 279.589,313.923 283.993,311.351 		"/>
		<polygon style="fill:#E2ECF2;" points="294.723,310.881 289.737,313.8 284.693,310.936 289.708,307.99 		"/>
		<polygon style="fill:#FFFFFF;" points="294.1,310.512 289.75,313.058 285.357,310.56 289.726,307.996 		"/>
		<polygon style="fill:#E2ECF2;" points="239.793,333.19 234.801,336.094 229.782,333.237 234.773,330.278 		"/>
		<polygon style="fill:#FFFFFF;" points="239.164,332.819 234.815,335.354 230.442,332.862 234.789,330.284 		"/>
		<polygon style="fill:#E2ECF2;" points="245.557,329.815 240.559,332.738 235.486,329.864 240.529,326.922 		"/>
		<polygon style="fill:#FFFFFF;" points="244.928,329.444 240.572,331.992 236.155,329.494 240.545,326.922 		"/>
		<polygon style="fill:#E2ECF2;" points="251.316,326.423 246.303,329.353 241.279,326.473 246.27,323.561 		"/>
		<polygon style="fill:#FFFFFF;" points="250.686,326.06 246.319,328.612 241.943,326.103 246.289,323.567 		"/>
		<polygon style="fill:#E2ECF2;" points="257.087,323.075 252.045,325.997 247.018,323.131 252.016,320.194 		"/>
		<polygon style="fill:#FFFFFF;" points="256.451,322.711 252.061,325.259 247.679,322.76 252.033,320.201 		"/>
		<polygon style="fill:#E2ECF2;" points="268.697,316.278 263.697,319.22 258.649,316.333 263.665,313.41 		"/>
		<polygon style="fill:#FFFFFF;" points="268.065,315.914 263.712,318.479 259.316,315.963 263.685,313.41 		"/>
		<polygon style="fill:#E2ECF2;" points="274.473,312.917 269.438,315.835 264.408,312.973 269.412,310.061 		"/>
		<polygon style="fill:#FFFFFF;" points="273.836,312.553 269.453,315.088 265.076,312.603 269.426,310.067 		"/>
		<polygon style="fill:#E2ECF2;" points="280.189,309.568 275.173,312.496 270.143,309.61 275.139,306.695 		"/>
		<polygon style="fill:#FFFFFF;" points="279.557,309.198 275.188,311.751 270.804,309.242 275.161,306.695 		"/>
		<polygon style="fill:#E2ECF2;" points="285.962,306.176 280.941,309.105 275.895,306.231 280.908,303.295 		"/>
		<polygon style="fill:#FFFFFF;" points="285.334,305.805 280.956,308.365 276.56,305.855 280.928,303.295 		"/>
		<polygon style="fill:#E2ECF2;" points="304.156,336.167 299.162,339.079 294.103,336.223 299.133,333.3 		"/>
		<polygon style="fill:#FFFFFF;" points="303.523,335.803 299.184,338.338 294.772,335.853 299.151,333.306 		"/>
		<polygon style="fill:#E2ECF2;" points="309.911,332.819 304.886,335.73 299.862,332.868 304.854,329.932 		"/>
		<polygon style="fill:#FFFFFF;" points="309.285,332.448 304.902,334.978 300.529,332.492 304.877,329.94 		"/>
		<polygon style="fill:#E2ECF2;" points="315.677,329.444 310.649,332.368 305.607,329.494 310.62,326.554 		"/>
		<polygon style="fill:#FFFFFF;" points="315.045,329.082 310.665,331.623 306.27,329.124 310.643,326.554 		"/>
		<polygon style="fill:#E2ECF2;" points="321.417,326.077 316.395,328.989 311.36,326.134 316.367,323.197 		"/>
		<polygon style="fill:#FFFFFF;" points="320.78,325.713 316.411,328.248 312.025,325.764 316.387,323.203 		"/>
		<polygon style="fill:#E2ECF2;" points="296.108,300.219 291.129,303.167 286.07,300.268 291.1,297.351 		"/>
		<polygon style="fill:#FFFFFF;" points="295.481,299.854 291.145,302.419 286.738,299.897 291.119,297.351 		"/>
		<polygon style="fill:#E2ECF2;" points="301.879,296.864 296.857,299.787 291.828,296.919 296.83,293.989 		"/>
		<polygon style="fill:#FFFFFF;" points="301.249,296.494 296.872,299.041 292.494,296.537 296.849,293.995 		"/>
		<polygon style="fill:#E2ECF2;" points="307.629,293.502 302.617,296.425 297.551,293.558 302.59,290.616 		"/>
		<polygon style="fill:#FFFFFF;" points="306.996,293.139 302.63,295.686 298.218,293.188 302.605,290.616 		"/>
		<polygon style="fill:#E2ECF2;" points="341.105,293.972 336.09,296.925 331.054,294.032 336.061,291.122 		"/>
		<polygon style="fill:#FFFFFF;" points="340.48,293.612 336.105,296.185 331.718,293.656 336.081,291.122 		"/>
		<polygon style="fill:#E2ECF2;" points="346.853,290.622 341.839,293.563 336.816,290.67 341.809,287.755 		"/>
		<polygon style="fill:#FFFFFF;" points="346.218,290.258 341.856,292.824 337.477,290.302 341.825,287.755 		"/>
		<polygon style="fill:#E2ECF2;" points="352.603,287.291 347.588,290.208 342.557,287.342 347.552,284.393 		"/>
		<polygon style="fill:#FFFFFF;" points="351.977,286.928 347.599,289.468 343.226,286.965 347.569,284.398 		"/>
		<polygon style="fill:#E2ECF2;" points="347.103,297.412 342.11,300.348 337.049,297.467 342.083,294.557 		"/>
		<polygon style="fill:#FFFFFF;" points="346.473,297.048 342.131,299.607 337.72,297.097 342.105,294.557 		"/>
		<polygon style="fill:#E2ECF2;" points="352.87,294.045 347.856,296.992 342.81,294.101 347.824,291.189 		"/>
		<polygon style="fill:#FFFFFF;" points="352.239,293.681 347.871,296.253 343.476,293.73 347.842,291.196 		"/>
		<polygon style="fill:#E2ECF2;" points="358.631,290.702 353.592,293.607 348.55,290.764 353.557,287.822 		"/>
		<polygon style="fill:#FFFFFF;" points="357.993,290.34 353.608,292.867 349.218,290.394 353.579,287.822 		"/>
		<polygon style="fill:#E2ECF2;" points="304.588,305.066 299.588,308.001 294.558,305.115 299.558,302.223 		"/>
		<polygon style="fill:#FFFFFF;" points="303.954,304.701 299.605,307.262 295.227,304.745 299.58,302.223 		"/>
		<polygon style="fill:#E2ECF2;" points="310.333,301.698 305.357,304.608 300.294,301.754 305.321,298.837 		"/>
		<polygon style="fill:#FFFFFF;" points="309.707,301.329 305.37,303.863 300.962,301.379 305.343,298.845 		"/>
		<polygon style="fill:#E2ECF2;" points="316.131,298.343 311.079,301.261 306.054,298.393 311.052,295.482 		"/>
		<polygon style="fill:#FFFFFF;" points="315.49,297.974 311.103,300.521 306.72,298.022 311.076,295.488 		"/>
		<polygon style="fill:#E2ECF2;" points="310.604,308.489 305.607,311.426 300.58,308.544 305.574,305.597 		"/>
		<polygon style="fill:#FFFFFF;" points="309.981,308.125 305.625,310.684 301.24,308.174 305.6,305.602 		"/>
		<polygon style="fill:#E2ECF2;" points="316.367,305.134 311.338,308.057 306.332,305.183 311.306,302.261 		"/>
		<polygon style="fill:#FFFFFF;" points="315.738,304.77 311.359,307.311 306.996,304.814 311.33,302.267 		"/>
		<polygon style="fill:#E2ECF2;" points="322.133,301.803 317.102,304.69 312.073,301.859 317.073,298.904 		"/>
		<polygon style="fill:#FFFFFF;" points="321.501,301.439 317.122,303.943 312.742,301.482 317.095,298.91 		"/>
		<polygon style="fill:#E2ECF2;" points="353.102,300.853 348.101,303.777 343.041,300.903 348.068,297.978 		"/>
		<polygon style="fill:#FFFFFF;" points="352.47,300.482 348.117,303.029 343.707,300.533 348.088,297.978 		"/>
		<polygon style="fill:#E2ECF2;" points="358.865,297.475 353.842,300.417 348.826,297.523 353.813,294.588 		"/>
		<polygon style="fill:#FFFFFF;" points="358.239,297.11 353.861,299.676 349.481,297.153 353.836,294.594 		"/>
		<polygon style="fill:#E2ECF2;" points="370.617,297.543 365.596,300.465 354.55,294.174 359.574,291.251 		"/>
		<polygon style="fill:#FFFFFF;" points="369.991,297.179 365.605,299.726 355.218,293.793 359.589,291.251 		"/>
		<polygon style="fill:#E2ECF2;" points="359.11,304.251 354.091,307.199 349.041,304.307 354.06,301.383 		"/>
		<polygon style="fill:#FFFFFF;" points="358.477,303.889 354.11,306.459 349.706,303.93 354.086,301.397 		"/>
		<polygon style="fill:#DDE4E8;" points="335.309,297.586 330.296,300.539 325.25,297.641 330.266,294.73 		"/>
		<polygon style="fill:#DDE4E8;" points="341.307,301.02 336.313,303.955 331.257,301.075 336.288,298.165 		"/>
		<polygon style="fill:#DDE4E8;" points="347.3,304.462 342.301,307.385 337.243,304.518 342.27,301.595 		"/>
		<polygon style="fill:#DDE4E8;" points="353.31,307.859 348.295,310.809 343.237,307.915 348.265,304.998 		"/>
		<polygon style="fill:#E2ECF2;" points="335.356,297.294 330.352,300.243 325.302,297.351 330.313,294.435 		"/>
		<polygon style="fill:#FFFFFF;" points="334.727,296.932 330.359,299.502 325.968,296.98 330.336,294.44 		"/>
		<polygon style="fill:#DDE4E8;" points="335.283,290.975 330.269,293.922 325.227,291.022 330.241,288.119 		"/>
		<polygon style="fill:#DDE4E8;" points="341.026,287.613 336.019,290.56 330.997,287.668 335.986,284.751 		"/>
		<polygon style="fill:#DDE4E8;" points="346.782,284.283 341.76,287.198 336.737,284.332 341.731,281.383 		"/>
		<polygon style="fill:#E2ECF2;" points="335.338,290.683 330.32,293.638 325.281,290.738 330.291,287.827 		"/>
		<polygon style="fill:#FFFFFF;" points="334.702,290.32 330.336,292.885 325.945,290.368 330.31,287.827 		"/>
		<polygon style="fill:#E2ECF2;" points="341.074,287.329 336.067,290.272 331.045,287.378 336.037,284.46 		"/>
		<polygon style="fill:#FFFFFF;" points="340.444,286.965 336.081,289.53 331.708,287.008 336.057,284.466 		"/>
		<polygon style="fill:#E2ECF2;" points="346.831,283.992 341.813,286.915 336.797,284.047 341.777,281.1 		"/>
		<polygon style="fill:#FFFFFF;" points="346.205,283.622 341.825,286.176 337.455,283.672 341.794,281.105 		"/>
		<polygon style="fill:#DDE4E8;" points="329.537,294.292 324.526,297.239 319.481,294.347 324.496,291.435 		"/>
		<polygon style="fill:#E2ECF2;" points="329.589,294.002 324.576,296.95 319.529,294.058 324.546,291.147 		"/>
		<polygon style="fill:#FFFFFF;" points="328.958,293.638 324.587,296.203 320.197,293.681 324.564,291.147 		"/>
		<polygon style="fill:#E2ECF2;" points="341.354,300.731 336.368,303.672 331.305,300.785 336.334,297.875 		"/>
		<polygon style="fill:#FFFFFF;" points="340.722,300.367 336.383,302.926 331.973,300.417 336.353,297.875 		"/>
		<polygon style="fill:#E2ECF2;" points="347.346,304.173 342.35,307.094 337.291,304.221 342.32,301.304 		"/>
		<polygon style="fill:#FFFFFF;" points="346.722,303.803 342.368,306.355 337.961,303.846 342.338,301.31 		"/>
		<polygon style="fill:#E2ECF2;" points="353.357,307.576 348.35,310.519 343.29,307.632 348.32,304.708 		"/>
		<polygon style="fill:#FFFFFF;" points="352.734,307.206 348.359,309.778 343.959,307.256 348.337,304.714 		"/>
		<polygon style="fill:#E2ECF2;" points="364.882,300.909 359.873,303.826 354.826,300.965 359.842,298.041 		"/>
		<polygon style="fill:#FFFFFF;" points="364.242,300.539 359.888,303.079 355.496,300.589 359.858,298.041 		"/>
		<polygon style="fill:#E2ECF2;" points="323.967,284.233 318.945,287.138 313.921,284.289 318.91,281.327 		"/>
		<polygon style="fill:#FFFFFF;" points="323.334,283.863 318.96,286.397 314.582,283.913 318.934,281.341 		"/>
		<polygon style="fill:#E2ECF2;" points="329.709,280.859 324.7,283.764 319.641,280.914 324.669,277.985 		"/>
		<polygon style="fill:#FFFFFF;" points="329.077,280.496 324.711,283.019 320.305,280.539 324.685,277.985 		"/>
		<polygon style="fill:#E2ECF2;" points="335.438,277.511 330.465,280.434 325.424,277.56 330.434,274.618 		"/>
		<polygon style="fill:#FFFFFF;" points="334.814,277.14 330.48,279.681 326.087,277.183 330.453,274.618 		"/>
		<polygon style="fill:#E2ECF2;" points="328.922,314.508 323.908,317.438 318.874,314.559 323.881,311.622 		"/>
		<polygon style="fill:#FFFFFF;" points="328.289,314.145 323.924,316.697 319.541,314.186 323.895,311.628 		"/>
		<polygon style="fill:#E2ECF2;" points="329.188,321.297 324.172,324.233 319.118,321.347 324.14,318.424 		"/>
		<polygon style="fill:#FFFFFF;" points="328.559,320.934 324.185,323.487 319.783,320.977 324.162,318.436 		"/>
		<polygon style="fill:#E2ECF2;" points="334.942,317.943 329.933,320.861 324.872,317.999 329.899,315.075 		"/>
		<polygon style="fill:#FFFFFF;" points="334.309,317.572 329.946,320.119 325.541,317.623 329.917,315.081 		"/>
		<polygon style="fill:#E2ECF2;" points="340.686,314.559 335.673,317.511 330.626,314.614 335.64,311.696 		"/>
		<polygon style="fill:#FFFFFF;" points="340.057,314.194 335.688,316.759 331.294,314.243 335.657,311.696 		"/>
		<polygon style="fill:#E2ECF2;" points="216.581,363.471 209.242,367.751 204.227,364.889 211.536,360.621 		"/>
		<polygon style="fill:#FFFFFF;" points="215.948,363.107 209.257,367.01 204.89,364.518 211.556,360.621 		"/>
		<polygon style="fill:#E2ECF2;" points="222.367,360.108 217.346,363.057 212.273,360.164 217.312,357.246 		"/>
		<polygon style="fill:#FFFFFF;" points="221.736,359.751 217.361,362.316 212.944,359.794 217.331,357.253 		"/>
		<polygon style="fill:#E2ECF2;" points="228.075,356.742 223.078,359.69 218.038,356.791 223.047,353.912 		"/>
		<polygon style="fill:#FFFFFF;" points="227.445,356.378 223.096,358.949 218.708,356.427 223.069,353.912 		"/>
		<polygon style="fill:#E2ECF2;" points="233.87,353.388 228.864,356.328 223.791,353.441 228.832,350.532 		"/>
		<polygon style="fill:#FFFFFF;" points="233.236,353.023 228.878,355.576 224.463,353.066 228.85,350.538 		"/>
		<polygon style="fill:#E2ECF2;" points="239.729,349.957 234.726,352.868 229.689,350.014 234.694,347.072 		"/>
		<polygon style="fill:#FFFFFF;" points="239.1,349.588 234.742,352.124 230.36,349.63 234.716,347.079 		"/>
		<polygon style="fill:#E2ECF2;" points="245.491,346.596 240.492,349.545 235.436,346.651 240.464,343.703 		"/>
		<polygon style="fill:#FFFFFF;" points="244.865,346.232 240.511,348.798 236.102,346.281 240.483,343.717 		"/>
		<polygon style="fill:#E2ECF2;" points="251.257,343.242 246.248,346.139 241.19,343.298 246.217,340.337 		"/>
		<polygon style="fill:#FFFFFF;" points="250.628,342.879 246.264,345.395 241.854,342.921 246.237,340.343 		"/>
		<polygon style="fill:#E2ECF2;" points="256.994,339.86 252.002,342.791 246.959,339.917 251.973,336.995 		"/>
		<polygon style="fill:#FFFFFF;" points="256.361,339.499 252.02,342.045 247.622,339.547 251.99,336.995 		"/>
		<polygon style="fill:#E2ECF2;" points="262.665,336.557 257.638,339.492 252.618,336.606 257.612,333.682 		"/>
		<polygon style="fill:#FFFFFF;" points="262.034,336.186 257.657,338.758 253.282,336.228 257.626,333.682 		"/>
		<polygon style="fill:#E2ECF2;" points="268.438,333.19 263.381,336.137 258.353,333.244 263.351,330.34 		"/>
		<polygon style="fill:#FFFFFF;" points="267.8,332.826 263.4,335.397 259.017,332.875 263.371,330.34 		"/>
		<polygon style="fill:#E2ECF2;" points="274.163,329.808 269.156,332.77 264.139,329.864 269.129,326.965 		"/>
		<polygon style="fill:#FFFFFF;" points="273.535,329.45 269.174,332.028 264.802,329.494 269.146,326.972 		"/>
		<polygon style="fill:#E2ECF2;" points="279.93,326.478 274.903,329.403 269.847,326.534 274.871,323.611 		"/>
		<polygon style="fill:#FFFFFF;" points="279.297,326.114 274.918,328.662 270.515,326.164 274.892,323.611 		"/>
		<polygon style="fill:#E2ECF2;" points="285.826,323.037 280.801,325.962 275.746,323.087 280.768,320.139 		"/>
		<polygon style="fill:#FFFFFF;" points="285.192,322.667 280.814,325.214 276.41,322.717 280.786,320.145 		"/>
		<polygon style="fill:#E2ECF2;" points="291.551,319.669 286.575,322.599 281.521,319.725 286.544,316.766 		"/>
		<polygon style="fill:#FFFFFF;" points="290.926,319.301 286.591,321.859 282.189,319.349 286.561,316.772 		"/>
		<polygon style="fill:#E2ECF2;" points="300.762,314.304 292.297,319.22 287.268,316.364 295.725,311.412 		"/>
		<polygon style="fill:#FFFFFF;" points="300.129,313.935 292.316,318.479 287.931,315.988 295.745,311.412 		"/>
		<polygon style="fill:#E2ECF2;" points="225.271,365.327 215.253,371.18 210.196,368.287 220.252,362.422 		"/>
		<polygon style="fill:#FFFFFF;" points="224.646,364.957 215.273,370.44 210.868,367.917 220.27,362.429 		"/>
		<polygon style="fill:#E2ECF2;" points="231.121,361.892 226.09,364.833 221.083,361.94 226.063,359.049 		"/>
		<polygon style="fill:#FFFFFF;" points="230.484,361.527 226.106,364.094 221.747,361.571 226.08,359.055 		"/>
		<polygon style="fill:#E2ECF2;" points="236.882,358.542 231.869,361.484 226.835,358.599 231.841,355.668 		"/>
		<polygon style="fill:#FFFFFF;" points="236.253,358.178 231.885,360.737 227.503,358.228 231.858,355.668 		"/>
		<polygon style="fill:#E2ECF2;" points="242.606,355.176 237.602,358.122 232.584,355.238 237.571,352.307 		"/>
		<polygon style="fill:#FFFFFF;" points="241.976,354.811 237.621,357.384 233.246,354.86 237.593,352.314 		"/>
		<polygon style="fill:#E2ECF2;" points="248.521,351.752 243.5,354.656 238.465,351.802 243.465,348.848 		"/>
		<polygon style="fill:#FFFFFF;" points="247.891,351.382 243.515,353.918 239.127,351.432 243.489,348.853 		"/>
		<polygon style="fill:#E2ECF2;" points="254.27,348.378 249.265,351.326 244.232,348.428 249.231,345.511 		"/>
		<polygon style="fill:#FFFFFF;" points="253.639,348.016 249.282,350.58 244.896,348.058 249.255,345.517 		"/>
		<polygon style="fill:#E2ECF2;" points="260.019,345.023 255.02,347.947 249.976,345.079 254.987,342.131 		"/>
		<polygon style="fill:#FFFFFF;" points="259.389,344.659 255.035,347.201 250.639,344.697 255.008,342.131 		"/>
		<polygon style="fill:#E2ECF2;" points="265.782,341.663 260.785,344.573 255.716,341.725 260.752,338.765 		"/>
		<polygon style="fill:#FFFFFF;" points="265.156,341.299 260.802,343.833 256.382,341.343 260.775,338.771 		"/>
		<polygon style="fill:#E2ECF2;" points="271.435,338.351 266.433,341.273 261.379,338.406 266.401,335.482 		"/>
		<polygon style="fill:#FFFFFF;" points="270.802,337.986 266.45,340.533 262.042,338.036 266.422,335.482 		"/>
		<polygon style="fill:#E2ECF2;" points="277.202,334.971 272.168,337.913 267.146,335.026 272.135,332.108 		"/>
		<polygon style="fill:#FFFFFF;" points="276.571,334.606 272.181,337.167 267.81,334.656 272.152,332.108 		"/>
		<polygon style="fill:#E2ECF2;" points="282.971,331.623 277.945,334.564 272.903,331.671 277.913,328.748 		"/>
		<polygon style="fill:#FFFFFF;" points="282.34,331.253 277.959,333.818 273.565,331.302 277.932,328.754 		"/>
		<polygon style="fill:#E2ECF2;" points="288.695,328.261 283.683,331.185 278.651,328.31 283.658,325.38 		"/>
		<polygon style="fill:#FFFFFF;" points="288.065,327.891 283.7,330.443 279.317,327.94 283.676,325.386 		"/>
		<polygon style="fill:#E2ECF2;" points="294.581,324.825 289.56,327.762 284.539,324.881 289.531,321.945 		"/>
		<polygon style="fill:#FFFFFF;" points="293.95,324.455 289.578,327.014 285.202,324.505 289.549,321.952 		"/>
		<polygon style="fill:#E2ECF2;" points="306.757,317.709 295.513,324.283 290.432,321.415 301.699,314.822 		"/>
		<polygon style="fill:#FFFFFF;" points="306.126,317.345 295.527,323.537 291.1,321.039 301.72,314.829 		"/>
		<polygon style="fill:#E2ECF2;" points="234.339,366.967 221.351,374.552 216.318,371.684 229.298,364.1 		"/>
		<polygon style="fill:#FFFFFF;" points="233.706,366.603 221.366,373.818 216.983,371.315 229.317,364.104 		"/>
		<polygon style="fill:#E2ECF2;" points="297.202,340.238 248.563,368.651 243.529,365.783 292.127,337.37 		"/>
		<polygon style="fill:#FFFFFF;" points="296.568,339.874 248.579,367.909 244.193,365.412 292.149,337.37 		"/>
		<polygon style="fill:#E2ECF2;" points="240.021,363.655 234.993,366.598 229.965,363.705 234.967,360.781 		"/>
		<polygon style="fill:#FFFFFF;" points="239.387,363.291 235.011,365.857 230.628,363.329 234.985,360.787 		"/>
		<polygon style="fill:#E2ECF2;" points="245.764,360.294 240.735,363.228 235.723,360.343 240.711,357.414 		"/>
		<polygon style="fill:#FFFFFF;" points="245.13,359.93 240.754,362.484 236.379,359.974 240.729,357.421 		"/>
		<polygon style="fill:#E2ECF2;" points="251.641,356.864 246.636,359.77 241.59,356.914 246.604,353.978 		"/>
		<polygon style="fill:#FFFFFF;" points="251.01,356.496 246.649,359.029 242.257,356.544 246.621,353.984 		"/>
		<polygon style="fill:#E2ECF2;" points="257.401,353.491 252.399,356.408 247.344,353.548 252.369,350.611 		"/>
		<polygon style="fill:#FFFFFF;" points="256.772,353.127 252.413,355.668 248.011,353.17 252.389,350.617 		"/>
		<polygon style="fill:#E2ECF2;" points="263.167,350.138 258.143,353.06 253.102,350.192 258.117,347.245 		"/>
		<polygon style="fill:#FFFFFF;" points="262.536,349.767 258.162,352.314 253.765,349.815 258.134,347.25 		"/>
		<polygon style="fill:#E2ECF2;" points="268.902,346.758 263.89,349.704 258.88,346.811 263.857,343.89 		"/>
		<polygon style="fill:#FFFFFF;" points="268.273,346.394 263.905,348.959 259.545,346.443 263.877,343.896 		"/>
		<polygon style="fill:#E2ECF2;" points="274.572,343.457 269.553,346.394 264.535,343.507 269.524,340.57 		"/>
		<polygon style="fill:#FFFFFF;" points="273.94,343.087 269.572,345.647 265.199,343.131 269.545,340.577 		"/>
		<polygon style="fill:#E2ECF2;" points="280.31,340.103 275.322,343.031 270.28,340.15 275.29,337.198 		"/>
		<polygon style="fill:#FFFFFF;" points="279.684,339.731 275.338,342.285 270.943,339.781 275.313,337.204 		"/>
		<polygon style="fill:#E2ECF2;" points="286.095,336.746 281.055,339.652 276.039,336.796 281.022,333.843 		"/>
		<polygon style="fill:#FFFFFF;" points="285.462,336.376 281.072,338.911 276.704,336.425 281.048,333.843 		"/>
		<polygon style="fill:#E2ECF2;" points="291.848,333.361 286.824,336.298 281.779,333.418 286.791,330.493 		"/>
		<polygon style="fill:#FFFFFF;" points="291.217,332.998 286.84,335.557 282.444,333.048 286.81,330.506 		"/>
		<polygon style="fill:#E2ECF2;" points="297.725,329.926 292.707,332.843 287.673,329.982 292.676,327.058 		"/>
		<polygon style="fill:#FFFFFF;" points="297.092,329.561 292.723,332.098 288.341,329.611 292.695,327.065 		"/>
		<polygon style="fill:#E2ECF2;" points="312.838,321.089 298.56,329.438 293.49,326.59 307.783,318.196 		"/>
		<polygon style="fill:#FFFFFF;" points="312.206,320.725 298.576,328.698 294.159,326.214 307.802,318.202 		"/>
	</g>
	<g>
		<path style="fill:#DDEFF2;" d="M367.094,196.164l5.712,3.312c0,0-4.518,3.085-4.534,3.085
			C368.256,202.56,367.094,196.164,367.094,196.164z"/>
		<path style="fill:#DDEFF2;" d="M299.614,238.868c1.105-3.504,3.51-6.516,5.742-7.431c2.16-5.988,6.657-10.888,10.375-11.202
			c2.8-5.818,7.247-10.326,11.146-11.049c2.975-6.239,7.848-11.001,11.925-11.247c3.5-0.216,5.458,2.94,5.366,7.688
			c1.643-1.655,3.413-2.716,5.038-2.894c2.3-4.86,6.088-8.575,9.259-8.769c2.079-0.129,3.453,1.285,3.951,3.608
			c1.105-0.992,2.263-1.624,3.327-1.69c2.113-0.126,3.203,1.972,2.922,5.009l-6.942,4.008l-4.037,2.33l-4.171,2.408l-6.057,3.497
			l-5.057,2.919l-1.416,0.819l-2.804,1.617l-5.988,3.458l-6.249,3.607l-3.36,1.941l-2.734,1.578l-6.653,3.841l-1.995,3.015
			l-6.287,8.433l-5.769-3.334C299.236,240.343,299.37,239.63,299.614,238.868z"/>
		<polygon style="fill:#DDEFF2;" points="360.461,194.413 365.909,197.58 361.935,199.362 359.402,196.468 		"/>
		<polygon style="fill:#DDEFF2;" points="341.535,198.617 346.477,201.532 342.005,204.425 339.319,201.893 		"/>
		<path style="fill:#F0FAFC;" d="M305.382,242.201c1.108-3.504,3.512-6.515,5.743-7.43c2.162-5.989,6.657-10.889,10.376-11.202
			c2.801-5.819,7.247-10.326,11.145-11.049c2.976-6.239,7.846-11.002,11.927-11.247c3.498-0.217,5.455,2.938,5.364,7.688
			c1.643-1.655,3.413-2.716,5.036-2.893c2.301-4.861,6.089-8.578,9.261-8.77c2.081-0.129,3.454,1.285,3.952,3.608
			c1.104-0.994,2.26-1.624,3.326-1.691c2.114-0.127,3.204,1.972,2.923,5.01l-6.943,4.007l-4.038,2.331l-4.169,2.408l-6.058,3.496
			l-5.056,2.92l-1.418,0.818l-2.804,1.619l-5.989,3.457l-6.247,3.607l-3.359,1.94l-2.736,1.578l-6.653,3.841l-3.956,2.285
			l-5.073,2.928l-5.021,2.901C305.005,243.676,305.141,242.963,305.382,242.201z"/>
	</g>
	<g>
		<g>
			<path style="fill:#DDEFF2;" d="M179.862,57.612l8.181,4.744c0,0-6.472,4.417-6.495,4.417
				C181.525,66.773,179.862,57.612,179.862,57.612z"/>
			<path style="fill:#DDEFF2;" d="M83.21,118.777c1.583-5.019,5.027-9.331,8.225-10.643c3.095-8.577,9.535-15.594,14.86-16.044
				c4.01-8.334,10.38-14.789,15.963-15.825c4.261-8.938,11.24-15.758,17.082-16.111c5.012-0.31,7.814,4.21,7.685,11.011
				c2.354-2.37,4.887-3.89,7.214-4.144c3.295-6.961,8.719-12.284,13.263-12.561c2.979-0.184,4.946,1.841,5.661,5.167
				c1.58-1.422,3.238-2.326,4.763-2.421c3.029-0.181,4.589,2.824,4.186,7.175l-9.945,5.741l-5.781,3.337l-5.974,3.449l-8.676,5.009
				l-7.241,4.181l-2.03,1.172l-4.015,2.318l-8.577,4.952l-8.949,5.167l-4.813,2.779l-3.918,2.261l-9.528,5.501l-2.859,4.318
				l-9.004,12.076l-8.263-4.774C82.669,120.889,82.862,119.868,83.21,118.777z"/>
			<polygon style="fill:#DDEFF2;" points="170.361,55.105 178.166,59.641 172.474,62.192 168.846,58.047 			"/>
			<polygon style="fill:#DDEFF2;" points="143.255,61.125 150.334,65.301 143.926,69.445 140.081,65.819 			"/>
			<path style="fill:#F0FAFC;" d="M91.472,123.55c1.586-5.018,5.029-9.33,8.226-10.642c3.095-8.578,9.535-15.595,14.862-16.044
				c4.009-8.334,10.379-14.79,15.962-15.825c4.262-8.938,11.24-15.759,17.083-16.112c5.01-0.31,7.814,4.211,7.684,11.011
				c2.354-2.37,4.887-3.89,7.213-4.143c3.295-6.961,8.722-12.286,13.263-12.562c2.982-0.185,4.949,1.841,5.661,5.167
				c1.581-1.422,3.239-2.325,4.765-2.421c3.029-0.181,4.588,2.824,4.185,7.175l-9.943,5.74l-5.785,3.339l-5.972,3.448l-8.675,5.008
				l-7.24,4.182l-2.032,1.172l-4.017,2.319l-8.577,4.952l-8.948,5.166l-4.813,2.779l-3.918,2.262l-9.528,5.501l-5.667,3.272
				l-7.266,4.195l-7.193,4.152C90.932,125.663,91.125,124.642,91.472,123.55z"/>
		</g>
		<g>
			<path style="fill:#DDEFF2;" d="M124.675,111.129c-1.671-3.353-5.384-3.588-8.725-0.798c-2.601-5.094-8.674-4.868-13.606,0.526
				c-2.707,2.959-4.502,6.859-5.164,10.635c-1.598,0.272-3.315,1.264-4.877,2.972c-1.597,1.747-2.756,3.941-3.391,6.171
				c-1.215-0.374-2.754,0.165-4.092,1.632c-2.075,2.268-2.881,5.859-1.802,8.021c0.015,0.029,0.039,0.048,0.054,0.08l8.196,4.773
				l7.079-8.888l2.487-4.469l4.949-4.528l5.386-3.109l5.175-2.988l9.126-5.268C125.587,114.133,125.345,112.469,124.675,111.129z"/>
			<polygon style="fill:#DDEFF2;" points="123.168,109.266 130.835,113.754 124.634,119.055 121.406,113.312 			"/>
			<polygon style="fill:#DDEFF2;" points="113.359,107.472 121.158,112.087 117.973,115.118 111.253,110.5 			"/>
			<path style="fill:#F0FAFC;" d="M132.924,115.983c-1.671-3.352-5.383-3.587-8.725-0.798c-2.6-5.093-8.674-4.868-13.606,0.525
				c-2.707,2.961-4.501,6.861-5.166,10.637c-1.597,0.272-3.313,1.264-4.875,2.971c-1.598,1.746-2.756,3.941-3.392,6.171
				c-1.215-0.374-2.752,0.164-4.092,1.632c-2.075,2.268-2.882,5.859-1.801,8.02c0.014,0.03,0.039,0.049,0.053,0.082l5.624-3.247
				l2.14-1.236l7.973-4.604l6.976-4.027l5.384-3.109l5.175-2.988l9.125-5.268C133.836,118.987,133.593,117.323,132.924,115.983z"/>
		</g>
	</g>
	<g>
		<path style="fill:#DDEFF2;" d="M367.082,85.681c-1.709-3.433-5.512-3.674-8.93-0.818c-2.665-5.214-8.885-4.983-13.934,0.54
			c-2.771,3.032-4.608,7.023-5.289,10.891c-1.636,0.278-3.393,1.293-4.991,3.041c-1.635,1.789-2.822,4.035-3.474,6.318
			c-1.241-0.383-2.818,0.168-4.188,1.67c-2.125,2.322-2.951,5.999-1.846,8.212c0.016,0.03,0.039,0.05,0.055,0.082l5.239,2.954
			l2.71-7.543l8.163-4.713l7.141-4.123l5.515-3.184l5.3-3.059l9.342-5.394C368.018,88.755,367.77,87.052,367.082,85.681z"/>
		<polygon style="fill:#DDEFF2;" points="360.471,84.794 355.149,81.744 355.51,87.368 359.637,86.411 		"/>
		<polygon style="fill:#DDEFF2;" points="365.333,83.628 370.347,86.492 368.242,91.243 365.333,89.28 363.764,85.958 		"/>
		<path style="fill:#F0FAFC;" d="M372.378,88.715c-1.712-3.432-5.514-3.672-8.934-0.816c-2.662-5.214-8.882-4.983-13.932,0.539
			c-2.772,3.031-4.61,7.024-5.29,10.89c-1.634,0.278-3.392,1.294-4.99,3.042c-1.636,1.789-2.822,4.036-3.474,6.318
			c-1.241-0.383-2.817,0.169-4.189,1.671c-2.123,2.322-2.949,5.999-1.844,8.213c0.016,0.029,0.039,0.049,0.054,0.081l5.759-3.324
			l2.191-1.265l8.161-4.712l7.143-4.124l5.515-3.184l5.299-3.059l9.342-5.393C373.311,91.79,373.063,90.088,372.378,88.715z"/>
	</g>
	<g>
		<path style="fill:#DDEFF2;" d="M109.304,230.166c-1.708-3.433-5.511-3.675-8.93-0.819c-2.665-5.213-8.884-4.982-13.933,0.539
			c-2.771,3.032-4.608,7.025-5.29,10.891c-1.635,0.28-3.392,1.293-4.991,3.042c-1.634,1.789-2.822,4.035-3.473,6.318
			c-1.243-0.382-2.818,0.168-4.188,1.67c-2.125,2.323-2.951,6-1.845,8.213c0.015,0.03,0.039,0.05,0.054,0.083l5.239,2.953
			l2.71-7.544l8.163-4.711l7.141-4.124l5.514-3.184l5.3-3.061l9.342-5.394C110.239,233.24,109.991,231.536,109.304,230.166z"/>
		<polygon style="fill:#DDEFF2;" points="102.693,229.278 97.372,226.23 97.73,231.852 101.859,230.895 		"/>
		<polygon style="fill:#DDEFF2;" points="107.556,228.113 112.569,230.977 110.464,235.727 107.556,233.765 105.986,230.443 		"/>
		<path style="fill:#F0FAFC;" d="M114.6,233.199c-1.711-3.432-5.514-3.673-8.933-0.815c-2.663-5.215-8.882-4.984-13.932,0.538
			c-2.771,3.031-4.61,7.024-5.29,10.891c-1.634,0.278-3.392,1.294-4.991,3.041c-1.636,1.789-2.822,4.036-3.475,6.318
			c-1.242-0.383-2.816,0.169-4.188,1.67c-2.123,2.323-2.95,6.001-1.845,8.214c0.017,0.029,0.04,0.05,0.055,0.081l5.759-3.323
			l2.191-1.267l8.162-4.711l7.142-4.124l5.515-3.184l5.299-3.06l9.341-5.393C115.534,236.274,115.284,234.572,114.6,233.199z"/>
	</g>
	<g>
		<path style="fill:#E2E7E8;" d="M243.933,272.061c11.837,6.808,11.837,17.878,0,24.686l-9.076,5.268
			c-11.819,6.82-30.999,6.82-42.774,0l0,0c-11.797-6.835-11.797-17.874,0-24.683l9.109-5.272
			C213.026,265.228,232.154,265.228,243.933,272.061L243.933,272.061z"/>
		
			<linearGradient id="SVGID_00000069361246328056270670000008125004025199316905_" gradientUnits="userSpaceOnUse" x1="185.4575" y1="284.9243" x2="255.0459" y2="284.9243">
			<stop  offset="0" style="stop-color:#C2CCD3"/>
			<stop  offset="0.3166" style="stop-color:#B2BBC1"/>
			<stop  offset="1" style="stop-color:#C4CED6"/>
		</linearGradient>
		<path style="fill:url(#SVGID_00000069361246328056270670000008125004025199316905_);" d="M255.046,279.573h-0.402
			c-0.956-3.528-3.763-6.921-8.482-9.642c-11.776-6.801-30.902-6.801-42.74,0l-9.109,5.287c-4.634,2.67-7.416,6.001-8.411,9.467
			h-0.444v2.959h0.015c0.039,4.441,2.982,8.876,8.84,12.261c11.775,6.816,30.956,6.816,42.777,0l9.072-5.254
			c6.112-3.534,9.042-8.189,8.843-12.802h0.041V279.573z"/>
		
			<linearGradient id="SVGID_00000036971135821721185000000011690799903389669306_" gradientUnits="userSpaceOnUse" x1="482.5689" y1="281.9911" x2="552.1433" y2="281.9911" gradientTransform="matrix(-1 0 0 1 737.6094 0)">
			<stop  offset="0" style="stop-color:#F5F5F6"/>
			<stop  offset="1" style="stop-color:#D1D5DE"/>
		</linearGradient>
		<path style="fill:url(#SVGID_00000036971135821721185000000011690799903389669306_);" d="M246.162,267.017
			c11.838,6.814,11.838,17.885,0,24.685l-9.072,5.269c-11.821,6.827-31.002,6.827-42.777,0l0,0
			c-11.796-6.828-11.796-17.867,0-24.682l9.109-5.272C215.26,260.183,234.386,260.183,246.162,267.017L246.162,267.017z"/>
		<polygon style="fill:#C4CED6;" points="208.469,286.246 231.727,272.831 231.727,219.157 208.469,232.597 205.856,254.65 		"/>
		<polygon style="fill:#AFBBC4;" points="208.417,286.246 203.658,283.472 203.658,229.803 208.417,232.583 		"/>
		<polygon style="fill:#FCFCFC;" points="302.017,193.818 129.986,177.4 127.839,162.901 298.688,64.791 302.017,66.694 		"/>
		<polygon style="fill:#D6DEE5;" points="132.133,291.84 302.017,193.774 302.017,66.661 132.133,164.745 		"/>
		<polygon style="fill:#BEC7D0;" points="142.725,275.052 294.567,187.391 294.49,84.459 143.192,172.108 		"/>
		
			<linearGradient id="SVGID_00000175285136773650406880000008055719711312565120_" gradientUnits="userSpaceOnUse" x1="142.7271" y1="179.6765" x2="290.3535" y2="179.6765">
			<stop  offset="0" style="stop-color:#1C819F"/>
			<stop  offset="0.5" style="stop-color:#00719A"/>
			<stop  offset="1" style="stop-color:#005C86"/>
		</linearGradient>
		<polygon style="fill:url(#SVGID_00000175285136773650406880000008055719711312565120_);" points="142.727,272.202 
			290.353,186.972 290.353,87.151 142.727,172.368 		"/>
		<polygon style="fill:#BEC7D0;" points="127.839,162.901 132.133,164.745 132.133,291.84 128.276,289.914 		"/>
		<g>
			<defs>
				<polygon id="SVGID_00000119075178108851904260000006796392304796026538_" points="142.727,272.202 228.011,222.964 
					248.235,241.204 274.206,231.661 270.951,198.173 290.353,186.972 290.353,87.151 142.727,172.368 				"/>
			</defs>
			<clipPath id="SVGID_00000047749696008132654810000016090931442638796970_">
				<use xlink:href="#SVGID_00000119075178108851904260000006796392304796026538_"  style="overflow:visible;"/>
			</clipPath>
			<g style="clip-path:url(#SVGID_00000047749696008132654810000016090931442638796970_);">
				<g>
					<polygon style="fill:#E2E7E8;" points="250.209,139.92 287.426,158.369 287.426,185.217 262.057,199.867 241.29,194.088 
						198.456,171.211 					"/>
					<polygon style="fill:#656565;" points="220.953,85.554 270.277,114.106 285.47,105.327 236.065,76.79 237.031,76.234 
						287.426,105.327 270.277,115.228 219.872,86.133 					"/>
					<polygon style="fill:#252728;" points="222.769,86.661 270.277,114.106 285.47,105.327 236.065,76.79 236.056,76.79 
						236.056,79.358 					"/>
					<polygon style="fill:#252728;" points="270.27,195.107 219.875,166.017 219.875,86.133 270.27,115.228 271.423,150.999 					
						"/>
					
						<linearGradient id="SVGID_00000018925322910057438830000001556572533986041494_" gradientUnits="userSpaceOnUse" x1="289.3887" y1="150.2148" x2="306.545" y2="150.2148" gradientTransform="matrix(-1 0 0 1 576.8145 0)">
						<stop  offset="0" style="stop-color:#4F5050"/>
						<stop  offset="1" style="stop-color:#3F4142"/>
					</linearGradient>
					<polygon style="fill:url(#SVGID_00000018925322910057438830000001556572533986041494_);" points="270.27,195.107 
						287.426,185.206 287.426,105.323 270.27,115.228 					"/>
					<polygon style="fill:#FCFBFA;" points="222.769,86.661 270.277,114.106 283.308,106.578 236.056,79.358 					"/>
					<g>
						<polygon style="fill:#FCFBFA;" points="274.206,119.397 283.491,114.04 283.491,149.386 274.206,154.744 						"/>
						<g>
							<polygon style="fill:#BBBCBB;" points="275.612,144.661 282.083,140.923 282.083,141.348 275.612,145.085 							"/>
						</g>
						<g>
							<polygon style="fill:#BBBCBB;" points="275.612,142.772 282.083,139.035 282.083,139.46 275.612,143.197 							"/>
						</g>
						<g>
							<polygon style="fill:#BBBCBB;" points="275.612,140.882 282.083,137.145 282.083,137.573 275.612,141.311 							"/>
						</g>
						<g>
							<polygon style="fill:#BBBCBB;" points="275.612,138.991 282.083,135.256 282.083,135.687 275.612,139.416 							"/>
						</g>
						<g>
							<polygon style="fill:#BBBCBB;" points="275.612,137.105 282.083,133.368 282.083,133.793 275.612,137.53 							"/>
						</g>
						<g>
							<polygon style="fill:#BBBCBB;" points="275.612,135.215 282.083,131.481 282.083,131.906 275.612,135.643 							"/>
						</g>
						<g>
							<polygon style="fill:#BBBCBB;" points="275.612,133.325 282.083,129.59 282.083,130.014 275.612,133.749 							"/>
						</g>
						<g>
							<polygon style="fill:#BBBCBB;" points="275.612,131.439 282.083,127.701 282.083,128.126 275.612,131.863 							"/>
						</g>
						<g>
							<polygon style="fill:#BBBCBB;" points="275.612,129.548 282.083,125.81 282.083,126.238 275.612,129.977 							"/>
						</g>
						<g>
							<polygon style="fill:#BBBCBB;" points="275.612,122.768 282.083,119.031 282.083,122.394 275.612,126.127 							"/>
						</g>
					</g>
					<path style="fill:#252728;" d="M275.248,175.822c0,2.629,1.845,3.693,4.12,2.381c2.275-1.316,4.123-4.512,4.123-7.138
						c0-2.63-1.848-3.7-4.123-2.382C277.093,169.996,275.248,173.191,275.248,175.822z"/>
					<path style="fill:#5A5A5A;" d="M275.742,177.809c0.705,1.078,2.067,1.294,3.621,0.395c2.28-1.313,4.132-4.512,4.132-7.143
						c0-1.195-0.382-2.063-1.021-2.524c0.315,0.486,0.49,1.157,0.49,1.966c0,2.621-1.838,5.822-4.12,7.131
						C277.605,178.351,276.498,178.368,275.742,177.809z"/>
					<polygon style="fill:#B6BDBF;" points="225.297,89.264 269.892,115.228 270.27,186.881 270.626,115.588 286.162,106.056 
						270.27,114.916 					"/>
				</g>
				<g>
					<polygon style="fill:#E2E7E8;" points="230.722,150.768 267.938,169.216 267.938,196.064 242.57,210.714 221.803,204.935 
						178.97,182.058 					"/>
					<polygon style="fill:#656565;" points="201.466,96.4 250.79,124.953 265.982,116.173 216.579,87.637 217.544,87.081 
						267.938,116.173 250.79,126.075 200.385,96.979 					"/>
					<polygon style="fill:#252728;" points="203.281,97.508 250.79,124.953 265.982,116.173 216.579,87.637 216.567,87.637 
						216.567,90.205 					"/>
					<polygon style="fill:#252728;" points="250.783,205.953 200.388,176.863 200.388,96.979 250.783,126.075 251.936,161.846 					
						"/>
					
						<linearGradient id="SVGID_00000014630809690330084480000015398185309164216243_" gradientUnits="userSpaceOnUse" x1="308.877" y1="161.0612" x2="326.0313" y2="161.0612" gradientTransform="matrix(-1 0 0 1 576.8145 0)">
						<stop  offset="0" style="stop-color:#4F5050"/>
						<stop  offset="1" style="stop-color:#3F4142"/>
					</linearGradient>
					<polygon style="fill:url(#SVGID_00000014630809690330084480000015398185309164216243_);" points="250.783,205.953 
						267.938,196.053 267.938,116.169 250.783,126.075 					"/>
					<polygon style="fill:#FCFBFA;" points="203.281,97.508 250.79,124.953 263.82,117.424 216.567,90.205 					"/>
					<g>
						<polygon style="fill:#FCFBFA;" points="254.72,130.244 264.005,124.886 264.005,160.232 254.72,165.59 						"/>
						<g>
							<polygon style="fill:#BBBCBB;" points="256.125,155.507 262.596,151.77 262.596,152.194 256.125,155.932 							"/>
						</g>
						<g>
							<polygon style="fill:#BBBCBB;" points="256.125,153.619 262.596,149.881 262.596,150.306 256.125,154.044 							"/>
						</g>
						<g>
							<polygon style="fill:#BBBCBB;" points="256.125,151.728 262.596,147.991 262.596,148.42 256.125,152.157 							"/>
						</g>
						<g>
							<polygon style="fill:#BBBCBB;" points="256.125,149.838 262.596,146.104 262.596,146.533 256.125,150.263 							"/>
						</g>
						<g>
							<polygon style="fill:#BBBCBB;" points="256.125,147.952 262.596,144.215 262.596,144.64 256.125,148.376 							"/>
						</g>
						<g>
							<polygon style="fill:#BBBCBB;" points="256.125,146.061 262.596,142.328 262.596,142.753 256.125,146.49 							"/>
						</g>
						<g>
							<polygon style="fill:#BBBCBB;" points="256.125,144.171 262.596,140.436 262.596,140.861 256.125,144.596 							"/>
						</g>
						<g>
							<polygon style="fill:#BBBCBB;" points="256.125,142.285 262.596,138.548 262.596,138.972 256.125,142.71 							"/>
						</g>
						<g>
							<polygon style="fill:#BBBCBB;" points="256.125,140.395 262.596,136.656 262.596,137.085 256.125,140.823 							"/>
						</g>
						<g>
							<polygon style="fill:#BBBCBB;" points="256.125,133.614 262.596,129.878 262.596,133.24 256.125,136.973 							"/>
						</g>
					</g>
					<path style="fill:#252728;" d="M255.761,186.669c0,2.629,1.845,3.694,4.121,2.382c2.273-1.316,4.123-4.512,4.123-7.138
						c0-2.63-1.85-3.699-4.123-2.381C257.605,180.843,255.761,184.038,255.761,186.669z"/>
					<path style="fill:#5A5A5A;" d="M256.255,188.656c0.706,1.078,2.067,1.294,3.621,0.394c2.279-1.313,4.131-4.512,4.131-7.144
						c0-1.195-0.381-2.063-1.019-2.524c0.314,0.486,0.489,1.156,0.489,1.966c0,2.621-1.839,5.822-4.12,7.132
						C258.116,189.198,257.012,189.215,256.255,188.656z"/>
					<polygon style="fill:#B6BDBF;" points="205.81,100.111 250.403,126.075 250.783,197.727 251.139,126.435 266.674,116.903 
						250.783,125.763 					"/>
				</g>
				<g>
					<polygon style="fill:#359DB5;" points="204.477,128.296 253.801,156.845 268.994,148.07 219.588,119.533 220.558,118.977 
						270.951,148.07 253.801,157.971 203.397,128.875 					"/>
					<polygon style="fill:#1D7085;" points="206.292,129.405 253.801,156.845 268.994,148.07 219.588,119.533 219.58,119.533 
						219.58,122.1 					"/>
					<polygon style="fill:#1D7085;" points="253.797,237.852 203.401,208.758 203.401,128.875 253.797,157.971 254.944,193.741 
											"/>
					<polygon style="fill:#46B4C6;" points="253.797,237.852 270.951,227.948 270.951,148.065 253.797,157.971 					"/>
					<polygon style="fill:#FCFBFA;" points="206.292,129.405 253.801,156.845 266.834,149.316 219.58,122.1 					"/>
					<g>
						<polygon style="fill:#FCFBFA;" points="257.731,162.141 267.014,156.784 267.011,192.128 257.731,197.486 						"/>
						<g>
							<polygon style="fill:#BBBCBB;" points="259.139,187.403 265.607,183.667 265.607,184.09 259.139,187.828 							"/>
						</g>
						<g>
							<polygon style="fill:#BBBCBB;" points="259.139,185.511 265.607,181.779 265.607,182.204 259.139,185.94 							"/>
						</g>
						<g>
							<polygon style="fill:#BBBCBB;" points="259.139,183.625 265.607,179.887 265.607,180.312 259.139,184.049 							"/>
						</g>
						<g>
							<polygon style="fill:#BBBCBB;" points="259.139,181.736 265.607,178.001 265.607,178.424 259.139,182.161 							"/>
						</g>
						<g>
							<polygon style="fill:#BBBCBB;" points="259.139,179.847 265.607,176.11 265.607,176.535 259.139,180.273 							"/>
						</g>
						<g>
							<polygon style="fill:#BBBCBB;" points="259.139,177.958 265.607,174.224 265.607,174.645 259.139,178.382 							"/>
						</g>
						<g>
							<polygon style="fill:#BBBCBB;" points="259.139,176.069 265.607,172.333 265.607,172.757 259.139,176.494 							"/>
						</g>
						<g>
							<polygon style="fill:#BBBCBB;" points="259.139,174.181 265.607,170.443 265.607,170.869 259.139,174.605 							"/>
						</g>
						<g>
							<polygon style="fill:#BBBCBB;" points="259.139,172.29 265.607,168.554 265.607,168.982 259.139,172.719 							"/>
						</g>
						<g>
							<polygon style="fill:#BBBCBB;" points="259.139,165.511 265.607,161.774 265.607,165.133 259.139,168.87 							"/>
						</g>
					</g>
					<path style="fill:#252728;" d="M258.767,218.564c0,0.819,0.182,1.494,0.506,1.986c0.753,0.558,1.853,0.539,3.099-0.175
						c2.28-1.311,4.118-4.512,4.118-7.133c0-0.81-0.179-1.48-0.491-1.966c-0.752-0.578-1.864-0.567-3.11,0.148
						C260.619,212.744,258.767,215.944,258.767,218.564z"/>
					<path style="fill:#359DB5;" d="M259.272,220.55c0.35,0.539,0.878,0.871,1.505,0.936c0.087,0.012,0.175,0.021,0.272,0.021
						c0.561,0,1.187-0.187,1.839-0.564c2.278-1.311,4.129-4.512,4.129-7.148c0-0.007,0-0.007,0-0.018
						c0-0.144-0.007-0.281-0.019-0.409c-0.007-0.117-0.022-0.225-0.041-0.333c-0.047-0.285-0.114-0.547-0.213-0.77
						c-0.036-0.108-0.088-0.209-0.145-0.306c-0.043-0.076-0.091-0.154-0.137-0.223c-0.081-0.097-0.158-0.187-0.239-0.263
						c-0.067-0.081-0.146-0.14-0.226-0.198c0.313,0.485,0.491,1.156,0.491,1.966c0,2.622-1.838,5.822-4.118,7.133
						C261.125,221.089,260.025,221.107,259.272,220.55z"/>
					<polygon style="fill:#B6BDBF;" points="208.826,132.006 253.417,157.971 253.797,229.625 254.149,158.331 269.686,148.794 
						253.797,157.658 					"/>
					<polygon style="fill:#E2E7E8;" points="203.397,128.875 253.129,158.398 253.797,237.852 222.894,220.011 203.397,148.797 
											"/>
				</g>
				<g>
					<polygon style="fill:#E2E7E8;" points="185.676,176.475 222.894,194.924 222.894,221.771 197.524,236.422 176.758,230.644 
						133.924,207.767 					"/>
					<polygon style="fill:#656565;" points="156.422,122.108 205.745,150.66 220.939,141.881 171.534,113.345 172.499,112.789 
						222.894,141.881 205.745,151.783 155.34,122.688 					"/>
					<polygon style="fill:#252728;" points="158.235,123.215 205.745,150.66 220.939,141.881 171.534,113.345 171.522,113.345 
						171.522,115.913 					"/>
					<polygon style="fill:#252728;" points="205.737,231.661 155.343,202.57 155.343,122.688 205.737,151.783 206.889,187.554 					
						"/>
					
						<linearGradient id="SVGID_00000019656565216242725730000018079971116967811467_" gradientUnits="userSpaceOnUse" x1="353.9209" y1="186.7693" x2="371.0777" y2="186.7693" gradientTransform="matrix(-1 0 0 1 576.8145 0)">
						<stop  offset="0" style="stop-color:#4F5050"/>
						<stop  offset="1" style="stop-color:#3F4142"/>
					</linearGradient>
					<polygon style="fill:url(#SVGID_00000019656565216242725730000018079971116967811467_);" points="205.737,231.661 
						222.894,221.761 222.894,141.877 205.737,151.783 					"/>
					<polygon style="fill:#FCFBFA;" points="158.235,123.215 205.745,150.66 218.774,143.132 171.522,115.913 					"/>
					<g>
						<polygon style="fill:#FCFBFA;" points="209.673,155.952 218.957,150.594 218.957,185.94 209.673,191.298 						"/>
						<g>
							<polygon style="fill:#BBBCBB;" points="211.081,181.215 217.55,177.478 217.55,177.903 211.081,181.64 							"/>
						</g>
						<g>
							<polygon style="fill:#BBBCBB;" points="211.081,179.327 217.55,175.59 217.55,176.014 211.081,179.751 							"/>
						</g>
						<g>
							<polygon style="fill:#BBBCBB;" points="211.081,177.436 217.55,173.7 217.55,174.128 211.081,177.865 							"/>
						</g>
						<g>
							<polygon style="fill:#BBBCBB;" points="211.081,175.546 217.55,171.811 217.55,172.241 211.081,175.971 							"/>
						</g>
						<g>
							<polygon style="fill:#BBBCBB;" points="211.081,173.66 217.55,169.922 217.55,170.348 211.081,174.085 							"/>
						</g>
						<g>
							<polygon style="fill:#BBBCBB;" points="211.081,171.769 217.55,168.037 217.55,168.461 211.081,172.199 							"/>
						</g>
						<g>
							<polygon style="fill:#BBBCBB;" points="211.081,169.879 217.55,166.144 217.55,166.569 211.081,170.304 							"/>
						</g>
						<g>
							<polygon style="fill:#BBBCBB;" points="211.081,167.993 217.55,164.255 217.55,164.681 211.081,168.417 							"/>
						</g>
						<g>
							<polygon style="fill:#BBBCBB;" points="211.081,166.102 217.55,162.365 217.55,162.793 211.081,166.531 							"/>
						</g>
						<g>
							<polygon style="fill:#BBBCBB;" points="211.081,159.322 217.55,155.586 217.55,158.948 211.081,162.681 							"/>
						</g>
					</g>
					<path style="fill:#252728;" d="M210.714,212.376c0,2.63,1.846,3.694,4.121,2.381c2.275-1.315,4.122-4.511,4.122-7.138
						c0-2.63-1.847-3.699-4.122-2.382C212.561,206.551,210.714,209.746,210.714,212.376z"/>
					<path style="fill:#5A5A5A;" d="M211.209,214.363c0.706,1.079,2.067,1.294,3.623,0.395c2.278-1.312,4.129-4.511,4.129-7.143
						c0-1.195-0.383-2.063-1.02-2.524c0.313,0.486,0.489,1.155,0.489,1.966c0,2.621-1.838,5.821-4.118,7.132
						C213.071,214.906,211.966,214.923,211.209,214.363z"/>
					<polygon style="fill:#B6BDBF;" points="160.765,125.819 205.359,151.783 205.737,223.435 206.094,152.142 221.629,142.611 
						205.737,151.471 					"/>
				</g>
				<g>
					<polygon style="fill:#E2E7E8;" points="165.503,187.809 202.72,206.257 202.72,233.107 177.352,247.756 156.585,241.977 
						113.752,219.1 					"/>
					<polygon style="fill:#656565;" points="136.248,133.442 185.572,161.995 200.765,153.215 151.361,124.678 152.326,124.123 
						202.72,153.215 185.572,163.117 135.167,134.021 					"/>
					<polygon style="fill:#252728;" points="138.063,134.55 185.572,161.995 200.765,153.215 151.361,124.678 151.35,124.678 
						151.35,127.247 					"/>
					<polygon style="fill:#252728;" points="185.564,242.996 135.17,213.905 135.17,134.021 185.564,163.117 186.717,198.888 					
						"/>
					
						<linearGradient id="SVGID_00000154423069383056656730000013112986296140123521_" gradientUnits="userSpaceOnUse" x1="374.0943" y1="198.1037" x2="391.25" y2="198.1037" gradientTransform="matrix(-1 0 0 1 576.8145 0)">
						<stop  offset="0" style="stop-color:#4F5050"/>
						<stop  offset="1" style="stop-color:#3F4142"/>
					</linearGradient>
					<polygon style="fill:url(#SVGID_00000154423069383056656730000013112986296140123521_);" points="185.564,242.996 
						202.72,233.095 202.72,153.211 185.564,163.117 					"/>
					<polygon style="fill:#FCFBFA;" points="138.063,134.55 185.572,161.995 198.602,154.466 151.35,127.247 					"/>
					<g>
						<polygon style="fill:#FCFBFA;" points="189.5,167.286 198.785,161.928 198.785,197.275 189.5,202.632 						"/>
						<g>
							<polygon style="fill:#BBBCBB;" points="190.907,192.549 197.377,188.812 197.377,189.236 190.907,192.974 							"/>
						</g>
						<g>
							<polygon style="fill:#BBBCBB;" points="190.907,190.66 197.377,186.923 197.377,187.348 190.907,191.085 							"/>
						</g>
						<g>
							<polygon style="fill:#BBBCBB;" points="190.907,188.77 197.377,185.033 197.377,185.462 190.907,189.199 							"/>
						</g>
						<g>
							<polygon style="fill:#BBBCBB;" points="190.907,186.88 197.377,183.145 197.377,183.575 190.907,187.305 							"/>
						</g>
						<g>
							<polygon style="fill:#BBBCBB;" points="190.907,184.994 197.377,181.257 197.377,181.682 190.907,185.419 							"/>
						</g>
						<g>
							<polygon style="fill:#BBBCBB;" points="190.907,183.104 197.377,179.37 197.377,179.795 190.907,183.532 							"/>
						</g>
						<g>
							<polygon style="fill:#BBBCBB;" points="190.907,181.213 197.377,177.478 197.377,177.903 190.907,181.638 							"/>
						</g>
						<g>
							<polygon style="fill:#BBBCBB;" points="190.907,179.327 197.377,175.59 197.377,176.014 190.907,179.751 							"/>
						</g>
						<g>
							<polygon style="fill:#BBBCBB;" points="190.907,177.436 197.377,173.698 197.377,174.126 190.907,177.865 							"/>
						</g>
						<g>
							<polygon style="fill:#BBBCBB;" points="190.907,170.656 197.377,166.92 197.377,170.282 190.907,174.015 							"/>
						</g>
					</g>
					<path style="fill:#252728;" d="M190.542,223.71c0,2.63,1.846,3.694,4.121,2.381c2.275-1.315,4.122-4.511,4.122-7.137
						c0-2.63-1.847-3.7-4.122-2.382C192.388,217.885,190.542,221.081,190.542,223.71z"/>
					<path style="fill:#5A5A5A;" d="M191.037,225.698c0.705,1.077,2.066,1.293,3.622,0.394c2.279-1.313,4.13-4.511,4.13-7.143
						c0-1.196-0.381-2.064-1.02-2.524c0.314,0.485,0.49,1.156,0.49,1.966c0,2.621-1.838,5.822-4.118,7.131
						C192.898,226.24,191.794,226.257,191.037,225.698z"/>
					<polygon style="fill:#B6BDBF;" points="140.592,137.153 185.186,163.117 185.564,234.77 185.92,163.476 201.457,153.944 
						185.564,162.805 					"/>
				</g>
				<g>
					<polygon style="fill:#E2E7E8;" points="145.33,199.378 182.547,217.827 182.547,244.673 157.179,259.325 136.412,253.546 
						93.58,230.668 					"/>
					<polygon style="fill:#656565;" points="116.076,145.01 165.399,173.563 180.593,164.784 131.188,136.247 132.154,135.691 
						182.547,164.784 165.399,174.686 114.995,145.59 					"/>
					<polygon style="fill:#252728;" points="117.891,146.118 165.399,173.563 180.593,164.784 131.188,136.247 131.177,136.247 
						131.177,138.815 					"/>
					<polygon style="fill:#252728;" points="165.392,254.564 114.998,225.474 114.998,145.59 165.392,174.686 166.544,210.456 					
						"/>
					
						<linearGradient id="SVGID_00000010296295845944593660000004172673806252806829_" gradientUnits="userSpaceOnUse" x1="394.2671" y1="209.6716" x2="411.4229" y2="209.6716" gradientTransform="matrix(-1 0 0 1 576.8145 0)">
						<stop  offset="0" style="stop-color:#4F5050"/>
						<stop  offset="1" style="stop-color:#3F4142"/>
					</linearGradient>
					<polygon style="fill:url(#SVGID_00000010296295845944593660000004172673806252806829_);" points="165.392,254.564 
						182.547,244.663 182.547,164.78 165.392,174.686 					"/>
					<polygon style="fill:#FCFBFA;" points="117.891,146.118 165.399,173.563 178.43,166.035 131.177,138.815 					"/>
					<g>
						<polygon style="fill:#FCFBFA;" points="169.328,178.855 178.612,173.496 178.612,208.843 169.328,214.2 						"/>
						<g>
							<polygon style="fill:#BBBCBB;" points="170.735,204.118 177.205,200.381 177.205,200.805 170.735,204.542 							"/>
						</g>
						<g>
							<polygon style="fill:#BBBCBB;" points="170.735,202.23 177.205,198.493 177.205,198.917 170.735,202.654 							"/>
						</g>
						<g>
							<polygon style="fill:#BBBCBB;" points="170.735,200.34 177.205,196.602 177.205,197.031 170.735,200.767 							"/>
						</g>
						<g>
							<polygon style="fill:#BBBCBB;" points="170.735,198.449 177.205,194.714 177.205,195.144 170.735,198.874 							"/>
						</g>
						<g>
							<polygon style="fill:#BBBCBB;" points="170.735,196.562 177.205,192.825 177.205,193.249 170.735,196.986 							"/>
						</g>
						<g>
							<polygon style="fill:#BBBCBB;" points="170.735,194.672 177.205,190.939 177.205,191.363 170.735,195.101 							"/>
						</g>
						<g>
							<polygon style="fill:#BBBCBB;" points="170.735,192.782 177.205,189.046 177.205,189.471 170.735,193.207 							"/>
						</g>
						<g>
							<polygon style="fill:#BBBCBB;" points="170.735,190.895 177.205,187.158 177.205,187.583 170.735,191.32 							"/>
						</g>
						<g>
							<polygon style="fill:#BBBCBB;" points="170.735,189.005 177.205,185.267 177.205,185.695 170.735,189.433 							"/>
						</g>
						<g>
							<polygon style="fill:#BBBCBB;" points="170.735,182.225 177.205,178.489 177.205,181.85 170.735,185.583 							"/>
						</g>
					</g>
					<path style="fill:#252728;" d="M170.369,235.277c0,2.631,1.845,3.694,4.121,2.384c2.275-1.315,4.122-4.513,4.122-7.139
						c0-2.629-1.847-3.699-4.122-2.382C172.214,229.453,170.369,232.649,170.369,235.277z"/>
					<path style="fill:#5A5A5A;" d="M170.864,237.265c0.706,1.08,2.067,1.296,3.622,0.396c2.279-1.313,4.13-4.513,4.13-7.144
						c0-1.196-0.382-2.063-1.02-2.523c0.314,0.484,0.49,1.155,0.49,1.966c0,2.619-1.838,5.821-4.118,7.132
						C172.726,237.81,171.62,237.826,170.864,237.265z"/>
					<polygon style="fill:#B6BDBF;" points="120.42,148.721 165.013,174.686 165.392,246.338 165.748,175.044 181.284,165.514 
						165.392,174.373 					"/>
				</g>
				<g>
					<polygon style="fill:#E2E7E8;" points="125.127,211.231 162.343,229.679 162.343,256.528 136.975,271.177 116.208,265.399 
						73.376,242.521 					"/>
					<polygon style="fill:#656565;" points="95.872,156.864 145.195,185.416 160.389,176.637 110.984,148.1 111.95,147.544 
						162.343,176.637 145.195,186.539 94.79,157.443 					"/>
					<polygon style="fill:#252728;" points="97.687,157.971 145.195,185.416 160.389,176.637 110.984,148.1 110.973,148.1 
						110.973,150.669 					"/>
					<polygon style="fill:#252728;" points="145.188,266.417 94.793,237.327 94.793,157.443 145.188,186.539 146.34,222.31 					"/>
					
						<linearGradient id="SVGID_00000121249277377346639020000015735855962465624975_" gradientUnits="userSpaceOnUse" x1="414.4712" y1="221.5254" x2="431.627" y2="221.5254" gradientTransform="matrix(-1 0 0 1 576.8145 0)">
						<stop  offset="0" style="stop-color:#4F5050"/>
						<stop  offset="1" style="stop-color:#3F4142"/>
					</linearGradient>
					<polygon style="fill:url(#SVGID_00000121249277377346639020000015735855962465624975_);" points="145.188,266.417 
						162.343,256.516 162.343,176.634 145.188,186.539 					"/>
					<polygon style="fill:#FCFBFA;" points="97.687,157.971 145.195,185.416 158.226,177.888 110.973,150.669 					"/>
					<g>
						<polygon style="fill:#FCFBFA;" points="149.123,190.708 158.408,185.35 158.408,220.697 149.123,226.054 						"/>
						<g>
							<polygon style="fill:#BBBCBB;" points="150.531,215.971 157.001,212.234 157.001,212.659 150.531,216.395 							"/>
						</g>
						<g>
							<polygon style="fill:#BBBCBB;" points="150.531,214.082 157.001,210.346 157.001,210.77 150.531,214.507 							"/>
						</g>
						<g>
							<polygon style="fill:#BBBCBB;" points="150.531,212.192 157.001,208.455 157.001,208.884 150.531,212.621 							"/>
						</g>
						<g>
							<polygon style="fill:#BBBCBB;" points="150.531,210.302 157.001,206.567 157.001,206.997 150.531,210.727 							"/>
						</g>
						<g>
							<polygon style="fill:#BBBCBB;" points="150.531,208.415 157.001,204.678 157.001,205.103 150.531,208.84 							"/>
						</g>
						<g>
							<polygon style="fill:#BBBCBB;" points="150.531,206.525 157.001,202.792 157.001,203.216 150.531,206.954 							"/>
						</g>
						<g>
							<polygon style="fill:#BBBCBB;" points="150.531,204.635 157.001,200.899 157.001,201.325 150.531,205.06 							"/>
						</g>
						<g>
							<polygon style="fill:#BBBCBB;" points="150.531,202.749 157.001,199.011 157.001,199.436 150.531,203.174 							"/>
						</g>
						<g>
							<polygon style="fill:#BBBCBB;" points="150.531,200.858 157.001,197.12 157.001,197.549 150.531,201.287 							"/>
						</g>
						<g>
							<polygon style="fill:#BBBCBB;" points="150.531,194.078 157.001,190.342 157.001,193.704 150.531,197.436 							"/>
						</g>
					</g>
					<path style="fill:#252728;" d="M150.165,247.132c0,2.63,1.846,3.694,4.121,2.381c2.275-1.315,4.122-4.51,4.122-7.137
						c0-2.631-1.847-3.699-4.122-2.381C152.011,241.307,150.165,244.501,150.165,247.132z"/>
					<path style="fill:#5A5A5A;" d="M150.66,249.12c0.706,1.078,2.067,1.294,3.622,0.393c2.279-1.313,4.129-4.51,4.129-7.143
						c0-1.193-0.38-2.063-1.019-2.524c0.314,0.487,0.49,1.156,0.49,1.967c0,2.622-1.838,5.82-4.118,7.133
						C152.521,249.662,151.416,249.681,150.66,249.12z"/>
					<polygon style="fill:#B6BDBF;" points="100.216,160.575 144.809,186.539 145.188,258.191 145.544,186.898 161.079,177.367 
						145.188,186.226 					"/>
				</g>
			</g>
			<g style="clip-path:url(#SVGID_00000047749696008132654810000016090931442638796970_);">
				<polygon style="fill:#E2E7E8;" points="305.977,88.559 93.71,211.107 93.71,183.961 305.977,61.413 				"/>
			</g>
		</g>
	</g>
</g>
</svg>
