<?xml version="1.0" encoding="utf-8"?>
<!-- Generator: Adobe Illustrator 27.5.0, SVG Export Plug-In . SVG Version: 6.00 Build 0)  -->
<svg version="1.1" xmlns="http://www.w3.org/2000/svg" xmlns:xlink="http://www.w3.org/1999/xlink" x="0px" y="0px"
	 viewBox="0 0 1122 1122" style="enable-background:new 0 0 1122 1122;" xml:space="preserve">
<g id="BG">
	<rect y="0" style="fill:#F9F9F9;" width="1122" height="1122"/>
</g>
<g id="Graphic">
	<g>
		<g>
			<path style="fill:#404041;" d="M460.198,537.516l5.257,27.763l-39.087,18.662l-6.116-33.089
				C420.252,550.851,438.196,558.778,460.198,537.516z"/>
			<path style="fill:#272525;" d="M424.959,586.554c-0.79-0.426-1.347-1.188-1.511-2.074l-6.118-33.089
				c-0.2-1.084,0.214-2.186,1.08-2.87c0.86-0.683,2.03-0.832,3.036-0.386c0.649,0.276,16.545,6.71,36.688-12.756
				c0.784-0.759,1.921-1.026,2.958-0.694c1.035,0.336,1.822,1.204,2.019,2.278l5.258,27.762c0.251,1.321-0.421,2.649-1.637,3.232
				l-39.086,18.663c-0.833,0.397-1.806,0.383-2.627-0.034C425,586.576,424.98,586.565,424.959,586.554z M424.017,554.899
				l4.568,24.692l33.527-16.006l-3.85-20.331C443.464,555.642,430.708,555.972,424.017,554.899z"/>
		</g>
		<g>
			<g>
				<path style="fill:#FFFFFF;" d="M409.444,628.26c7.532-44.281,28.01-72.98,46.708-69.799
					c18.698,3.18,28.536,37.036,21.004,81.317c-3.051,17.937-8.356,34.072-14.83,46.714l-54.332-9.242
					C406.065,663.179,406.393,646.197,409.444,628.26z"/>
				<path style="fill:#272525;" d="M462.776,688.79c-0.275,0.054-0.559,0.059-0.842,0.013l-54.332-9.243
					c-1.011-0.173-1.791-0.977-1.928-1.991c-2.043-14.891-1.538-32.077,1.461-49.702c7.555-44.398,28.829-75.214,49.407-71.716
					c10.13,1.724,18.016,11.294,22.212,26.95c4.107,15.345,4.36,35.612,0.71,57.068c-3.001,17.634-8.206,34.023-15.056,47.393
					C464.075,688.215,463.465,688.655,462.776,688.79z M410.091,675.232l50.922,8.662c6.254-12.662,11.026-28.009,13.833-44.505
					c3.542-20.809,3.323-40.367-0.616-55.077c-3.691-13.785-10.253-22.145-18.468-23.541c-17.725-3.026-37.021,26.811-44.007,67.879
					l0,0C408.947,645.142,408.377,661.203,410.091,675.232z M409.444,628.259l0.038-0.007L409.444,628.259z"/>
			</g>
			<g>
				<path style="fill:#404041;" d="M462.326,686.492c-9.508,18.568-21.54,29.596-32.664,27.704
					c-11.124-1.892-18.833-16.279-21.668-36.946L462.326,686.492z"/>
				<path style="fill:#272525;" d="M435.695,716.4c-2.157,0.424-4.308,0.463-6.423,0.105c-11.877-2.021-20.477-16.214-23.598-38.935
					c-0.102-0.738,0.155-1.481,0.69-2.001c0.535-0.52,1.288-0.746,2.019-0.628l54.332,9.243c0.736,0.125,1.368,0.595,1.702,1.261
					c0.334,0.665,0.332,1.452-0.01,2.117C455.818,704.332,445.641,714.445,435.695,716.4z M410.794,680.103
					c3.094,18.445,10.191,30.243,19.26,31.784c9.099,1.555,19.674-7.249,28.685-23.628L410.794,680.103z"/>
			</g>
			<g>
				
					<ellipse transform="matrix(0.1677 -0.9858 0.9858 0.1677 -226.0724 947.0404)" style="fill:#4F74A5;" cx="447.827" cy="607.406" rx="23.801" ry="20.212"/>
				<path style="fill:#272525;" d="M450.557,633.085c-2.311,0.454-4.707,0.503-7.113,0.096
					c-12.261-2.087-20.268-15.348-17.852-29.555c1.159-6.816,4.52-12.853,9.46-17.003c5.052-4.234,11.143-6.01,17.158-4.991
					c12.261,2.086,20.267,15.344,17.852,29.554C468.118,622.607,460.024,631.221,450.557,633.085z M445.948,586.324
					c-2.778,0.546-5.472,1.861-7.885,3.888c-4.091,3.436-6.881,8.477-7.853,14.196l0,0c-1.984,11.667,4.301,22.501,14.014,24.154
					c9.72,1.648,19.235-6.498,21.217-18.156c1.984-11.667-4.305-22.501-14.018-24.154
					C449.599,585.939,447.755,585.969,445.948,586.324z M427.901,604.018l0.038-0.007L427.901,604.018z"/>
			</g>
		</g>
		<g>
			<path style="fill:#FFFFFF;" d="M263.147,641.992L263.147,641.992c47.61,110.719,113.212,113.475,157.28-0.84l0.933-2.088
				c13.265-29.696-5.351-65.321-33.721-64.532l-92.673,2.578C267.215,577.881,249.951,613.086,263.147,641.992z"/>
			<path style="fill:#272525;" d="M343.481,729.093c-29.861,0.003-59.378-30.438-83.21-85.861v-0.003
				c-7.317-16.08-6.152-35.23,3.047-49.989c7.411-11.887,18.913-18.909,31.559-19.26l92.673-2.578
				c12.893-0.321,24.776,6.199,32.655,17.991c9.899,14.808,11.436,34.328,4.012,50.949l-0.933,2.089
				c-27.316,70.87-58.024,86.256-78.965,86.653C344.042,729.09,343.759,729.093,343.481,729.093z M388.54,577.652
				c-0.272,0-0.543,0.003-0.815,0.012l-92.673,2.578c-10.509,0.29-20.138,6.236-26.418,16.309
				c-8.113,13.019-9.124,29.93-2.638,44.139c0.009,0.021,0.018,0.043,0.027,0.061c22.779,52.977,50.257,82.075,77.45,82.078
				c0.243,0,0.485-0.003,0.728-0.006c26.886-0.514,52.919-29.918,73.303-82.797l0.995-2.242c6.554-14.67,5.213-31.878-3.5-44.912
				C408.51,583.163,398.902,577.652,388.54,577.652z"/>
		</g>
		<g>
			<path style="fill:#FFFFFF;" d="M442.396,477.017c-9.58,0.885-27.612,5.017-41.669,22.704c-3.846,4.84-4.923,11.345-2.993,17.219
				c4.644,14.135,16.295,38.974,39.63,32.698c30.568-8.222,33.423-33.631,14.842-67.357
				C450.26,478.746,446.415,476.646,442.396,477.017z"/>
			<path style="fill:#272525;" d="M401.304,532.821c-2.403-4.344-4.543-9.338-6.388-14.956c-2.27-6.908-0.969-14.385,3.489-19.99
				c14.751-18.56,33.721-22.89,43.715-23.815c0.003-0.002,0.003-0.002,0.003-0.002c5.163-0.471,10.135,2.184,12.672,6.77
				c0.004,0.007,0.008,0.013,0.011,0.02c11.749,21.325,14.898,38.73,9.362,51.741c-4.113,9.677-12.874,16.373-26.033,19.913
				C423.409,556.467,410.458,549.368,401.304,532.821z M442.672,479.971c-9.055,0.839-26.242,4.762-39.619,21.598
				c-3.208,4.037-4.14,9.437-2.496,14.447c4.556,13.878,15.306,36.33,36.038,30.753c11.305-3.04,18.746-8.595,22.111-16.503
				c4.717-11.089,1.57-27.185-9.1-46.55c-0.004-0.007-0.006-0.01-0.007-0.013c-1.397-2.525-4.114-3.99-6.93-3.73L442.672,479.971z"
				/>
		</g>
		<g>
			<polygon style="fill:#404041;" points="439.693,518.113 244.661,514.182 244.661,473.928 439.693,473.928 			"/>
			<path style="fill:#272525;" d="M439.694,521.654c-0.023,0-0.046,0-0.073,0l-195.035-3.933c-1.926-0.038-3.468-1.615-3.468-3.541
				v-40.254c0-1.957,1.585-3.541,3.541-3.541h195.035c1.957,0,3.541,1.584,3.541,3.541v44.186c0,0.951-0.384,1.865-1.063,2.528
				C441.509,521.29,440.619,521.654,439.694,521.654z M248.201,510.712l187.952,3.787v-37.031H248.201V510.712z"/>
		</g>
		<g>
			<path style="fill:#FFFFFF;" d="M443.624,485.551h-201.74l3.37-69.705c2.515-52.017,45.422-92.899,97.5-92.899h0
				c52.078,0,94.984,40.882,97.5,92.899L443.624,485.551z"/>
			<g>
				<path style="fill:#C27E77;" d="M437.828,421.418c-3.036-1.317-6.519-2.068-10.224-2.068c-11.773,0-21.317,7.557-21.317,16.88
					c0,9.323,9.544,16.88,21.317,16.88c3.706,0,7.188-0.751,10.224-2.068V421.418z"/>
			</g>
			<g>
				<ellipse style="fill:#C27E77;" cx="307.433" cy="436.23" rx="21.095" ry="16.88"/>
			</g>
			<g>
				<path style="fill:#424243;" d="M434.837,389.762c-1.768-4.429-4.959-9.095-7.409-13.807H299.643
					c-3.639,0-6.589,2.95-6.589,6.589v37.614c0,3.639,2.95,6.589,6.589,6.589h139.303c0.684,0,1.33-0.134,1.951-0.327v-19.569
					C439.006,401.108,437.08,395.378,434.837,389.762z"/>
				<path style="fill:#272525;" d="M299.644,424.63c-2.467,0-4.473-2.007-4.473-4.474v-37.61c0-2.467,2.007-4.474,4.473-4.474
					h128.938c-0.787-1.407-1.519-2.82-2.171-4.236H299.644c-4.8,0-8.709,3.91-8.709,8.709v37.61c0,4.8,3.909,8.709,8.709,8.709
					h139.304c0.672,0,1.32-0.094,1.949-0.239v-4.463c-0.591,0.289-1.247,0.466-1.949,0.466H299.644z"/>
			</g>
			<g>
				<path style="fill:#898989;" d="M394.656,391.047h-82.988c-2.339,0-4.234-1.896-4.234-4.234l0,0c0-2.338,1.896-4.234,4.234-4.234
					h82.988c2.338,0,4.234,1.896,4.234,4.234l0,0C398.89,389.151,396.994,391.047,394.656,391.047z"/>
			</g>
			<g>
				<circle style="fill:#898989;" cx="409.898" cy="386.813" r="4.234"/>
			</g>
			<g>
				<path style="fill:#272525;" d="M335.691,400.927c0,3.105-2.517,5.622-5.621,5.622s-5.622-2.517-5.622-5.622
					s2.517-5.621,5.622-5.621S335.691,397.822,335.691,400.927z"/>
			</g>
			<g>
				<path style="fill:#272525;" d="M412.646,400.927c0,3.105-2.517,5.622-5.622,5.622s-5.622-2.517-5.622-5.622
					s2.517-5.621,5.622-5.621S412.646,397.822,412.646,400.927z"/>
			</g>
			<path style="fill:#272525;" d="M443.623,489.507H241.882c-1.082,0-2.118-0.445-2.862-1.228c-0.748-0.783-1.139-1.838-1.09-2.92
				l3.372-69.707c2.62-54.2,47.183-96.66,101.452-96.66c54.265,0,98.828,42.46,101.452,96.66l3.369,69.707
				c0.05,1.082-0.341,2.137-1.09,2.92C445.741,489.062,444.705,489.507,443.623,489.507z M246.033,481.596h193.439l-3.169-65.56
				c-2.417-49.98-43.507-89.132-93.548-89.132c-50.045,0-91.135,39.153-93.548,89.132L246.033,481.596z"/>
		</g>
		<g>
			<path style="fill:#FFFFFF;" d="M236.798,511.449c0.099,2.535,0.294,5.071,0.699,7.59l18.175,113.349h37.96
				c0-14.378,21.327-26.033,47.635-26.033c26.308,0,47.635,11.656,47.635,26.033h41.575l14.801-115.384
				c0.237-1.844,0.383-3.699,0.471-5.555H236.798z"/>
			<path style="fill:#272525;" d="M430.479,636.315h-41.577c-2.172,0-3.929-1.757-3.929-3.929c0-11.982-20.016-22.103-43.707-22.103
				c-23.691,0-43.707,10.121-43.707,22.103c0,2.172-1.757,3.929-3.929,3.929h-37.96c-1.93,0-3.572-1.4-3.879-3.307l-18.174-113.349
				c-0.387-2.417-0.625-4.976-0.744-8.057c-0.042-1.066,0.353-2.106,1.094-2.877c0.74-0.771,1.761-1.205,2.831-1.205h208.95
				c1.074,0,2.102,0.441,2.843,1.216c0.741,0.779,1.132,1.826,1.082,2.9c-0.092,1.957-0.249,3.913-0.495,5.862l-14.802,115.386
				C434.124,634.846,432.455,636.315,430.479,636.315z M392.408,628.458h34.614l14.361-111.953c0.05-0.376,0.092-0.752,0.134-1.128
				H240.992c0.104,1.07,0.23,2.072,0.384,3.039l17.645,110.042h31.103c3.215-14.878,24.524-26.031,51.142-26.031
				C367.884,602.427,389.193,613.58,392.408,628.458z"/>
		</g>
		<g>
			<rect x="305.815" y="534.545" style="fill:#4F74A5;" width="117.861" height="30.202"/>
			<path style="fill:#272525;" d="M423.675,568.676H305.814c-2.172,0-3.929-1.757-3.929-3.929v-30.202
				c0-2.172,1.757-3.929,3.929-3.929h117.861c2.172,0,3.929,1.757,3.929,3.929v30.202
				C427.604,566.919,425.847,568.676,423.675,568.676z M309.743,560.818h110.004v-22.344H309.743V560.818z"/>
		</g>
		<g>
			
				<rect x="289.069" y="519.163" transform="matrix(0.764 -0.6452 0.6452 0.764 -298.6437 332.4724)" style="fill:#404041;" width="32.281" height="110.712"/>
			<path style="fill:#272525;" d="M328.592,630.357c-0.89,0-1.775-0.376-2.395-1.11l-71.427-84.589
				c-1.115-1.321-0.948-3.3,0.373-4.413l24.663-20.826c0.636-0.538,1.456-0.807,2.283-0.728c0.827,0.067,1.593,0.465,2.13,1.098
				l71.428,84.589c0.535,0.636,0.797,1.456,0.728,2.284c-0.07,0.829-0.466,1.593-1.101,2.128l-24.664,20.826
				C330.023,630.115,329.306,630.357,328.592,630.357z M261.577,543.009l67.385,79.803l19.88-16.786l-67.387-79.803L261.577,543.009
				z"/>
		</g>
		<g>
			<path style="fill:#FFFFFF;" d="M239.538,510.218c7.458-6.078,23.222-15.758,45.643-12.979c6.135,0.76,11.46,4.65,14.196,10.194
				c6.586,13.341,15.667,39.231-5.385,51.095c-27.577,15.541-47.411-0.595-57.77-37.681
				C235.137,516.959,236.41,512.768,239.538,510.218z"/>
			<path style="fill:#272525;" d="M307.949,521.256c5.059,18.233,0.791,32.37-12.5,39.859c-11.872,6.69-22.816,8.043-32.529,4.02
				c-13.064-5.413-23.009-20.046-29.558-43.492c-0.002-0.007-0.004-0.015-0.006-0.022c-1.402-5.054,0.288-10.428,4.304-13.704
				c7.781-6.339,24.348-16.542,47.885-13.624c7.108,0.879,13.276,5.299,16.495,11.823
				C304.656,511.411,306.623,516.476,307.949,521.256z M239.08,520.034c0.001,0.004,0.002,0.007,0.004,0.015
				c5.948,21.295,14.975,34.988,26.109,39.599c7.941,3.291,17.142,2.044,27.341-3.704c18.703-10.541,10.662-34.086,4.184-47.2
				c-2.334-4.724-6.782-7.925-11.901-8.555c-21.348-2.649-36.355,6.587-43.402,12.332l0,0
				C239.222,514.305,238.308,517.254,239.08,520.034z"/>
		</g>
		<g>
			<g>
				<g>
					<path style="fill:#FFFFFF;" d="M760.116,642.51H652.503l1.205-287.36c37.544-15.358,72.436-11.717,106.609,0.555
						L760.116,642.51z"/>
					<path style="fill:#424243;" d="M760.116,644.979H652.503c-0.657,0-1.285-0.262-1.749-0.727
						c-0.464-0.465-0.722-1.096-0.719-1.752l1.204-287.36c0.004-1,0.61-1.897,1.534-2.275
						c34.106-13.952,68.544-13.786,108.378,0.516c0.981,0.353,1.635,1.283,1.634,2.325l-0.201,286.805
						C762.583,643.875,761.478,644.979,760.116,644.979z M654.982,640.042h102.667l0.198-282.593
						c-37.329-13.083-69.729-13.284-101.677-0.629L654.982,640.042z"/>
				</g>
				<g>
					<polygon style="fill:#B76284;" points="712.249,424.226 727.24,512.483 678.52,512.483 693.765,422.571 					"/>
					<path style="fill:#444445;" d="M728.722,513.735h-51.684l0.249-1.46l15.438-91.052l20.597,1.844l0.161,0.951L728.722,513.735z
						 M680.001,511.232h45.757l-14.581-85.845l-16.374-1.466L680.001,511.232z"/>
				</g>
				<g>
					<polygon style="fill:#B76284;" points="725.036,403.501 703.005,439.209 683.172,403.501 703.005,391.128 					"/>
					<path style="fill:#444445;" d="M702.949,441.684l-21.448-38.616l21.47-13.393l23.814,13.374L702.949,441.684z M684.843,403.932
						l18.22,32.803l20.225-32.783l-20.247-11.371L684.843,403.932z"/>
				</g>
				<g>
					<path style="fill:#404041;" d="M628.544,466.162v194.111l34.934-1.357l-0.006-2.973l87.643-3.583v7.049l26.181,0.639v31.15
						h46.664c0,0,0-240.139-0.083-240.139l-0.04-13.323c0-12.594-0.748-25.993-5.583-37.747
						c-11.619-28.246-46.533-51.755-76.614-51.949c-0.576-0.004-1.216,0.017-1.632,0.417c-0.345,0.331-0.441,0.837-0.521,1.309
						c-6.961,41.453-19.927,82.547-30.315,123.352c-1.69,6.638-3.379,13.275-5.069,19.913c-2.023-7.587-4.045-15.173-6.068-22.76
						c-5.899-22.125-11.798-44.25-17.696-66.375c-0.927-3.476-13.139-56.216-14.239-56.232
						c-25.151-0.344-61.342,26.581-68.074,51.586c-0.03,0.112-35.897,133.289-123.681,184.404v45.588
						C474.346,629.242,572.294,599.577,628.544,466.162z"/>
				</g>
				<g>
					<polygon style="fill:#404041;" points="708.433,638.235 706.706,638.235 634.966,638.235 634.966,977.362 699.111,977.362 
						699.111,710.603 716.029,710.603 716.029,977.362 780.173,977.362 780.173,638.235 					"/>
				</g>
				<g>
					<path style="fill:#543E27;" d="M693.664,1007.289H571.971c-1.941,0-3.515-1.574-3.515-3.515v-1.13
						c0-14.921,12.096-27.018,27.017-27.018h98.191c1.941,0,3.515,1.574,3.515,3.515v24.633
						C697.179,1005.716,695.605,1007.289,693.664,1007.289z"/>
					<path style="fill:#424243;" d="M693.665,1009.565H571.971c-3.192,0-5.79-2.598-5.79-5.79v-1.13
						c0-16.152,13.14-29.292,29.292-29.292h98.192c3.192,0,5.79,2.596,5.79,5.789v24.634
						C699.455,1006.967,696.857,1009.565,693.665,1009.565z M595.473,977.902c-13.642,0-24.742,11.1-24.742,24.742v1.13
						c0,0.684,0.556,1.24,1.24,1.24h121.694c0.684,0,1.24-0.556,1.24-1.24v-24.634c0-0.683-0.556-1.239-1.24-1.239H595.473z"/>
				</g>
				<g>
					<path style="fill:#543E27;" d="M714.893,1007.289h126.341c1.977,0,3.579-1.603,3.579-3.579v-0.569
						c0-15.196-12.318-27.514-27.514-27.514H714.893c-1.977,0-3.58,1.603-3.58,3.579v24.504
						C711.313,1005.687,712.916,1007.289,714.893,1007.289z"/>
					<path style="fill:#424243;" d="M841.234,1009.565H714.893c-3.229,0-5.856-2.626-5.856-5.856v-24.503
						c0-3.228,2.626-5.854,5.856-5.854h102.405c16.427,0,29.79,13.364,29.79,29.789v0.569
						C847.089,1006.939,844.462,1009.565,841.234,1009.565z M714.893,977.902c-0.72,0-1.305,0.584-1.305,1.304v24.503
						c0,0.719,0.586,1.305,1.305,1.305h126.341c0.719,0,1.304-0.586,1.304-1.305v-0.569c0-13.917-11.323-25.238-25.24-25.238
						H714.893z"/>
				</g>
				<g>
					<g>
						<path style="fill:#EDC3B4;" d="M704.56,390.61h-5.219c-16.949,0-30.69-13.74-30.69-30.69v-29.655
							c0-16.949,13.74-30.689,30.69-30.689h5.219c16.949,0,30.69,13.74,30.69,30.689v29.655
							C735.249,376.87,721.509,390.61,704.56,390.61z"/>
						<path style="fill:#424243;" d="M704.56,393.522h-5.22c-18.528,0-33.601-15.074-33.601-33.602v-29.655
							c0-18.528,15.073-33.601,33.601-33.601h5.22c18.528,0,33.601,15.073,33.601,33.601v29.655
							C738.161,378.448,723.088,393.522,704.56,393.522z M699.34,302.488c-15.316,0-27.777,12.461-27.777,27.777v29.655
							c0,15.317,12.461,27.778,27.777,27.778h5.22c15.316,0,27.777-12.461,27.777-27.778v-29.655
							c0-15.316-12.461-27.777-27.777-27.777H699.34z"/>
					</g>
				</g>
				<g>
					<polygon style="fill:#FFFFFF;" points="739.84,352.651 703.512,391.128 736.812,409.701 					"/>
					<path style="fill:#424243;" d="M736.811,412.17c-0.414,0-0.829-0.104-1.203-0.313l-33.299-18.574
						c-0.664-0.371-1.12-1.028-1.237-1.78c-0.115-0.752,0.122-1.516,0.646-2.07l36.328-38.477c0.712-0.754,1.817-0.98,2.767-0.574
						c0.951,0.408,1.547,1.367,1.493,2.4l-3.029,57.051c-0.046,0.85-0.526,1.618-1.273,2.031
						C737.633,412.067,737.222,412.17,736.811,412.17z M707.483,390.516l27.073,15.101l2.463-46.383L707.483,390.516z"/>
				</g>
				<g>
					<polygon style="fill:#FFFFFF;" points="666.678,352.651 703.005,391.128 669.706,409.701 					"/>
					<path style="fill:#424243;" d="M669.706,412.17c-0.411,0-0.822-0.102-1.193-0.307c-0.747-0.412-1.227-1.18-1.273-2.031
						l-3.029-57.051c-0.054-1.034,0.542-1.992,1.493-2.4c0.951-0.405,2.056-0.179,2.767,0.574l36.328,38.477
						c0.523,0.555,0.761,1.318,0.646,2.07c-0.117,0.752-0.573,1.409-1.237,1.78l-33.299,18.574
						C670.535,412.066,670.12,412.17,669.706,412.17z M669.498,359.234l2.463,46.383l27.073-15.101L669.498,359.234z"/>
				</g>
				<g>
					<g>
						<g>
							<g>
								<path style="fill:#EDC3B4;" d="M624.921,286.078c0.926,27.13,33.958,48.03,73.586,47.309l1.381-0.025
									c39.385-0.717,65.974-22.578,66.927-49.44l9.628-104.349c1.077-30.353-32.958-55.484-76.301-55.374l-1.52,0.004
									c-43.636,0.111-78.35,25.715-77.302,56.414L624.921,286.078z"/>
							</g>
							<g>
								<path style="fill:#F3D3C5;" d="M684.207,125.213l0.588,207.535c-33.213-3.648-59.056-22.722-59.874-46.67l-3.601-105.462
									C620.392,153.434,647.539,130.238,684.207,125.213z"/>
							</g>
							<g>
								<path style="fill:#424243;" d="M623.524,286.098l-3.67-105.472c-0.528-15.151,7.358-29.604,22.294-40.598
									c14.951-11.005,35.056-17.128,56.476-17.18l1.518-0.003c0.093,0,0.18-0.001,0.271-0.001c43.985,0,78.58,25.758,77.461,56.72
									l-9.694,104.338c-0.485,13.432-8.557,26.016-22.66,35.516c-13.919,9.375-26.263,14.706-45.634,15.061l-1.38,0.026
									c-0.084,0.001-0.163,0.003-0.246,0.004C658.08,335.154,624.487,313.763,623.524,286.098z M700.139,125.551l-1.517,0.004
									c-20.721,0.055-40.146,5.956-54.568,16.559c-14.223,10.457-21.748,24.158-21.268,38.492l3.531,105.451l-1.396,0.02
									l1.396-0.02c0.884,26.4,33.219,46.832,71.95,46.215c0.078-0.001,0.162-0.003,0.24-0.004l1.382-0.025
									c18.785-0.341,30.55-5.495,43.995-14.561c13.441-9.063,21.122-21.02,21.566-33.742l9.561-104.359
									c1.029-29.52-32.293-54.039-74.607-54.031C700.317,125.551,700.226,125.551,700.139,125.551z"/>
								<path style="fill:#424243;" d="M696.513,335.978c-40.256,0-73.48-22.107-74.444-49.83l-3.67-105.473
									c-0.547-15.704,7.58-30.555,22.886-41.821c15.229-11.209,35.592-17.41,57.336-17.463l1.793-0.004
									c25.937,0,50.2,9.102,64.904,24.348c9.607,9.961,14.453,21.676,14.01,33.88l-9.698,104.42
									c-0.496,13.782-8.771,26.805-23.297,36.588c-13.622,9.176-26.14,14.938-46.421,15.309l-1.631,0.031
									C697.692,335.974,697.1,335.978,696.513,335.978z M698.361,333.727l0.145,0.775l-0.014-0.778L698.361,333.727z
									 M698.243,330.816l0.263,1.452l-0.027-1.456l1.382-0.026c18.81-0.34,30.478-5.729,43.209-14.312
									c13.066-8.81,20.497-20.384,20.924-32.586l9.564-104.44c0.37-10.675-3.963-21.051-12.536-29.927
									c-13.618-14.099-36.271-22.515-60.598-22.515h-0.021l-1.777,0.004c-20.432,0.053-39.506,5.833-53.709,16.276
									c-13.799,10.144-21.14,23.38-20.675,37.271l3.529,105.451C628.62,311.322,660.206,331.385,698.243,330.816z
									 M626.626,159.197c-3.743,6.719-5.576,13.955-5.318,21.376l0.533,15.299l-0.509-15.218
									C621.082,173.199,622.906,165.936,626.626,159.197z"/>
							</g>
						</g>
					</g>
				</g>
				<g>
					<g>
						<path style="fill:#C27E77;" d="M647.833,245.259c7.535,0,13.644,5.233,13.644,11.686c0,6.453-6.109,11.686-13.644,11.686
							c-7.535,0-13.644-5.233-13.644-11.686C634.189,250.492,640.297,245.259,647.833,245.259z"/>
					</g>
					<g>
						<ellipse style="fill:#C27E77;" cx="723.378" cy="256.945" rx="13.644" ry="11.686"/>
					</g>
				</g>
				<g>
					<g>
						<path style="fill:#424243;" d="M682.887,261.085c1.923,0,3.816-0.617,5.23-1.817c0.596-0.506,0.671-1.399,0.165-1.996
							c-0.506-0.594-1.402-0.671-1.998-0.163c-1.567,1.324-4.305,1.516-6.242,0.421c-1.853-1.047-2.958-3.146-2.744-5.221
							c0.208-2.011,1.619-4.003,3.68-5.197c0.917-0.531,1.917-0.904,2.978-1.109l1.151-0.223l-0.032-10.384
							c-0.003-0.782-0.636-1.414-1.417-1.414h-0.003c-0.784,0.001-1.417,0.637-1.414,1.419l0.026,8.098
							c-0.951,0.278-1.859,0.667-2.709,1.159c-2.877,1.665-4.776,4.416-5.077,7.36c-0.33,3.179,1.347,6.385,4.166,7.978
							C679.944,260.726,681.424,261.085,682.887,261.085z"/>
					</g>
				</g>
				<g>
					<path style="fill:#424243;" d="M647.207,231.346L647.207,231.346c-2.744,0-4.968-2.225-4.968-4.969v-4.514
						c0-2.744,2.224-4.968,4.968-4.968l0,0c2.744,0,4.969,2.225,4.969,4.968v4.514C652.175,229.121,649.951,231.346,647.207,231.346
						z"/>
				</g>
				<g>
					<path style="fill:#424243;" d="M713.197,231.346L713.197,231.346c-2.744,0-4.968-2.225-4.968-4.969v-4.514
						c0-2.744,2.224-4.968,4.968-4.968l0,0c2.744,0,4.968,2.225,4.968,4.968v4.514C718.165,229.121,715.941,231.346,713.197,231.346
						z"/>
				</g>
				<g>
					<g>
						<g>
							<g>
								<g>
									<path style="fill:#424243;" d="M767.74,221.47c2.183,0.353,5.375,1.264,7.737,3.62c2.187,2.178,3.309,5.281,3.336,9.219
										c0.04,5.926-3.54,12.08-9.476,13.414c-0.949,0.213-1.916,0.32-2.883,0.384c-1.177,0.078-2.083,0.669-2.473,1.933
										c-0.249,0.804-0.239,1.67-0.228,2.517c0.004,0.281,0.013,0.581,0.159,0.815c0.664,1.062,4.081-0.151,5.003-0.352
										c1.486-0.323,2.944-0.802,4.339-1.436c3.127-1.421,5.947-3.66,7.843-6.696c1.958-3.135,2.765-6.884,2.741-10.619
										c-0.035-5.384-1.68-9.725-4.888-12.9c-5.236-5.184-12.785-5.272-13.718-5.262c-0.041,0-0.071,0.002-0.071,0.002
										c-1.383,0.035-2.642-0.777-2.631,0.625l0.055,2.022c0.038,1.398,1.12,2.531,2.485,2.601
										C766.382,221.424,767.74,221.489,767.74,221.47z"/>
									<path style="fill:#424243;" d="M765.101,255.264c-1.007,0-1.897-0.279-2.423-1.12c-0.365-0.586-0.375-1.199-0.381-1.564
										c-0.011-0.911-0.026-1.94,0.293-2.969c0.543-1.756,1.917-2.833,3.767-2.956c1.061-0.07,1.905-0.182,2.661-0.351
										c5.46-1.227,8.371-7.09,8.34-11.984c-0.024-3.542-1.003-6.299-2.908-8.198c-2.052-2.048-4.879-2.874-6.902-3.208
										c-0.441-0.011-1.278-0.036-2.552-0.101c-2.11-0.111-3.807-1.874-3.866-4.016l-0.055-2.022
										c-0.006-0.809,0.237-1.418,0.727-1.834c0.762-0.654,1.712-0.498,2.407-0.383c0.307,0.05,0.624,0.125,0.901,0.095
										c1.088-0.007,9.197,0.071,14.865,5.681c3.494,3.46,5.283,8.145,5.32,13.927c0.029,4.31-0.995,8.252-2.961,11.398
										c-1.941,3.107-4.872,5.614-8.476,7.251c-1.475,0.67-3.033,1.186-4.633,1.534c-0.141,0.03-0.35,0.09-0.6,0.159
										C767.541,254.904,766.246,255.264,765.101,255.264z M766.284,219.759l1.689,0.273c2.449,0.398,5.917,1.419,8.532,4.027
										c2.467,2.457,3.734,5.903,3.764,10.24c0.04,6.183-3.592,13.268-10.612,14.845c-0.907,0.203-1.894,0.336-3.107,0.417
										c-0.658,0.044-0.99,0.299-1.179,0.91c-0.168,0.542-0.172,1.19-0.165,1.881c0.509-0.023,1.392-0.209,2.636-0.555
										c0.318-0.088,0.583-0.161,0.762-0.201c1.399-0.303,2.76-0.754,4.046-1.338c3.083-1.401,5.576-3.524,7.212-6.143
										c1.672-2.677,2.542-6.079,2.518-9.837c-0.031-4.984-1.53-8.978-4.456-11.875c-4.83-4.783-11.889-4.857-12.678-4.84
										c-0.496,0.019-0.892-0.036-1.239-0.09l0.033,1.243c0.017,0.634,0.502,1.155,1.104,1.186c0.39,0.02,0.782,0.04,1.14,0.058
										V219.759z"/>
								</g>
								<g>
									<path style="fill:#EDC3B4;" d="M761.191,250.669c0,0,19.258-0.093,19.298-16.128c0.04-16.032-19.218-16.087-19.218-16.087
										L761.191,250.669z"/>
								</g>
							</g>
						</g>
					</g>
					<g>
						<g>
							<g>
								<path style="fill:#DBA999;" d="M766.174,244.225c0,0,9.059-0.237,9.083-9.686c0.024-9.448-9.035-9.299-9.035-9.299
									L766.174,244.225z"/>
							</g>
						</g>
					</g>
				</g>
				<g>
					<g>
						<path style="fill:#EBD461;" d="M642.841,163.211c0.153-0.556,0.289-1.118,0.406-1.688
							c26.153,12.473,56.332,13.548,85.169,10.729c8.074-0.789,17.672-3.057,20.302-10.731c3.67,18.158,11.046,35.559,21.544,50.824
							c1.465,2.133,8.554,11.785,11.582,10.505c2.45-1.04,1.537-11.247,1.626-13.406c0.809-19.621,6.094-42.047-4.943-59.915
							c-6.082-9.846-16.269-16.307-26.795-20.562c-10.869-4.394-23.801-4.419-34.093-9.815
							c-10.768-5.646-17.501-14.067-30.912-12.442c-4.737,0.574-9.052,5.357-13.641,3.313c-8.255-3.678-15.958-7.727-24.716-10.256
							c-15.219-4.394-33.058-1.973-41.678,12.834c-3.802,6.531-4.858,14.538-3.226,21.887c0.77,3.467,2.07,6.889,4.154,9.71
							c2.302,3.117,5.055,5.389,6.068,9.335c0.537,2.091,0.523,4.278,0.527,6.437c0.021,11.548,0.659,23.094,1.907,34.575
							c0.608,5.593,1.36,11.17,2.257,16.724c0.55,3.406,0.415,10.72,3.47,12.852c1.328-6.434,0.687-13.533,2.094-20.168
							c1.419-6.69,3.708-13.212,7.073-19.178C635.054,177.61,640.676,171.072,642.841,163.211z"/>
					</g>
					<g>
						<path style="fill:#424243;" d="M621.846,227.031c-0.589,0-1.171-0.178-1.666-0.525c-3.483-2.431-3.989-7.861-4.395-12.225
							c-0.088-0.967-0.168-1.848-0.281-2.55c-0.896-5.537-1.663-11.214-2.277-16.873c-1.254-11.537-1.902-23.272-1.925-34.883
							c-0.003-2.176-0.006-4.044-0.435-5.72c-0.574-2.24-1.959-3.889-3.559-5.798c-0.682-0.813-1.373-1.639-2.03-2.53
							c-2.138-2.893-3.701-6.529-4.654-10.808c-1.828-8.222-0.534-16.964,3.551-23.983c9.99-17.159,30.482-18.357,45.001-14.167
							c6.886,1.989,13.197,4.915,19.304,7.744c1.913,0.888,3.835,1.78,5.791,2.65c1.49,0.668,3.187-0.078,5.825-1.35
							c1.856-0.897,3.963-1.912,6.28-2.193c10.795-1.316,17.879,3.378,24.722,7.912c2.496,1.656,5.077,3.367,7.892,4.841
							c5.322,2.79,11.44,4.056,17.914,5.395c5.313,1.099,10.809,2.235,15.918,4.3c13.049,5.275,22.533,12.586,28.182,21.73
							c9.225,14.938,7.727,32.273,6.274,49.037c-0.378,4.358-0.734,8.475-0.901,12.529c-0.014,0.384,0.009,1.056,0.034,1.893
							c0.208,7.06,0.085,12.58-3.429,14.071c-4.591,1.963-10.769-5.195-15.119-11.537c-9.393-13.66-16.415-29.211-20.5-45.327
							c-3.895,3.507-10.073,5.645-18.661,6.483c-33.908,3.318-61.294,0.192-83.546-9.554c-1.723,5.147-4.688,9.7-7.565,14.115
							c-1.382,2.122-2.812,4.316-4.04,6.495c-3.05,5.407-5.325,11.582-6.761,18.353c-0.668,3.151-0.844,6.421-1.029,9.882
							c-0.179,3.389-0.367,6.891-1.063,10.269c-0.199,0.958-0.864,1.754-1.774,2.117
							C622.577,226.963,622.21,227.031,621.846,227.031z M748.719,158.61c0.063,0,0.125,0.001,0.19,0.006
							c1.311,0.087,2.402,1.04,2.664,2.328c3.574,17.679,10.866,34.883,21.089,49.752c2.576,3.756,5.854,7.449,7.73,8.827
							c0.364-2.195,0.245-6.338,0.199-7.895c-0.031-1.016-0.051-1.834-0.031-2.304c0.173-4.185,0.552-8.56,0.918-12.792
							c1.367-15.818,2.786-32.177-5.427-45.473c-4.987-8.067-13.535-14.593-25.413-19.392c-4.62-1.869-9.621-2.903-14.911-3.997
							c-6.584-1.362-13.393-2.769-19.44-5.939c-3.079-1.613-5.785-3.409-8.407-5.144c-6.502-4.31-12.117-8.041-20.805-6.987
							c-1.356,0.165-2.857,0.89-4.449,1.656c-2.974,1.437-6.684,3.225-10.726,1.427c-1.982-0.883-3.929-1.787-5.871-2.685
							c-6.178-2.864-12.011-5.569-18.468-7.433c-12.498-3.609-30.05-2.766-38.354,11.5c-3.358,5.768-4.412,12.981-2.897,19.791
							c0.773,3.48,2.001,6.377,3.653,8.613c0.583,0.792,1.2,1.524,1.805,2.246c1.885,2.247,3.835,4.572,4.739,8.094
							c0.611,2.384,0.614,4.712,0.617,6.964c0.023,11.596,0.66,23.125,1.891,34.458c0.443,4.067,0.964,8.144,1.558,12.169
							c0.137-1.019,0.307-2.037,0.52-3.05c1.558-7.351,4.045-14.081,7.386-20.005c1.319-2.341,2.8-4.614,4.233-6.812
							c3.065-4.706,5.959-9.15,7.323-14.095v-0.002c0.136-0.497,0.256-1.001,0.364-1.511c0.182-0.874,0.756-1.616,1.558-2.011
							c0.802-0.395,1.737-0.405,2.544-0.018c21.817,10.407,49.169,13.822,83.631,10.459c10.32-1.009,16.154-3.879,17.831-8.778
							C746.37,159.394,747.482,158.61,748.719,158.61z"/>
					</g>
				</g>
				<g>
					<path style="fill:#424243;" d="M729.144,207.057c-0.189,0-0.377-0.072-0.519-0.218c-3.216-3.276-6.689-4.843-10.166-4.81
						c-5.718,0.137-9.883,4.738-9.924,4.783c-0.27,0.301-0.729,0.327-1.028,0.06c-0.3-0.266-0.327-0.725-0.061-1.027
						c0.185-0.209,4.609-5.112,10.963-5.271c3.913-0.118,7.74,1.664,11.253,5.244c0.282,0.287,0.277,0.748-0.009,1.029
						C729.512,206.987,729.327,207.057,729.144,207.057z"/>
				</g>
				<g>
					<path style="fill:#424243;" d="M640.692,207.057c-0.172,0-0.344-0.061-0.483-0.183c-0.3-0.267-0.328-0.727-0.061-1.028
						c0.185-0.209,4.607-5.112,10.962-5.271c3.919-0.118,7.74,1.664,11.255,5.244c0.281,0.287,0.277,0.748-0.008,1.029
						c-0.287,0.283-0.748,0.277-1.03-0.009c-3.219-3.279-6.608-4.862-10.18-4.81c-5.729,0.145-9.869,4.737-9.91,4.783
						C641.093,206.975,640.893,207.057,640.692,207.057z"/>
				</g>
				<g>
					<g>
						<ellipse style="fill:#EDC3B4;" cx="471.143" cy="607.555" rx="31.584" ry="30.448"/>
					</g>
					<g>
						<path style="fill:#D3ACA4;" d="M462.384,629.609c17.597,0,31.862-14.264,31.862-31.859c0-6.574-1.994-12.681-5.406-17.755
							c7.941,5.794,13.122,15.144,13.122,25.726c0,17.595-14.265,31.859-31.862,31.859c-11.022,0-20.735-5.598-26.455-14.104
							C448.906,627.316,455.37,629.609,462.384,629.609z"/>
					</g>
					<g>
						<path style="fill:#424243;" d="M437.009,607.555c0-18.19,15.313-32.987,34.134-32.987c18.821,0,34.132,14.797,34.132,32.987
							c0,18.19-15.311,32.987-34.132,32.987C452.322,640.542,437.009,625.744,437.009,607.555z M442.107,607.555
							c0,15.389,13.026,27.909,29.036,27.909c16.008,0,29.033-12.52,29.033-27.909c0-15.389-13.026-27.909-29.033-27.909
							C455.133,579.646,442.107,592.166,442.107,607.555z"/>
					</g>
				</g>
				<g>
					<path style="fill:#424243;" d="M686.097,301.398c-12.487,0-20.144-8.957-20.257-9.092c-0.829-0.997-0.691-2.477,0.306-3.309
						c0.997-0.826,2.468-0.691,3.303,0.3c0.584,0.694,14.343,16.545,35.496-0.327c1.018-0.807,2.495-0.642,3.3,0.37
						c0.81,1.015,0.642,2.492-0.37,3.3C699.651,299.199,692.281,301.398,686.097,301.398z"/>
				</g>
			</g>
			<g>
				<path style="fill:#444445;" d="M837.661,715.293c-2.011,0-3.64-1.63-3.64-3.64v-34.454h-75.134v34.454
					c0,2.011-1.629,3.64-3.64,3.64c-2.011,0-3.64-1.63-3.64-3.64v-38.094c0-2.011,1.63-3.64,3.64-3.64h82.414
					c2.011,0,3.64,1.629,3.64,3.64v38.094C841.301,713.664,839.672,715.293,837.661,715.293z"/>
			</g>
			<g>
				<path style="fill:#59595B;" d="M883.73,853.05H709.177c-5.859,0-10.609-4.75-10.609-10.609V722.263
					c0-5.859,4.75-10.609,10.609-10.609H883.73c5.859,0,10.609,4.75,10.609,10.609v120.178
					C894.339,848.3,889.589,853.05,883.73,853.05z"/>
				<path style="fill:#444445;" d="M883.73,855.962H709.177c-7.455,0-13.521-6.066-13.521-13.521V722.262
					c0-7.455,6.066-13.521,13.521-13.521H883.73c7.455,0,13.521,6.066,13.521,13.521v120.178
					C897.251,849.896,891.185,855.962,883.73,855.962z M709.177,714.565c-4.245,0-7.697,3.453-7.697,7.697v120.178
					c0,4.245,3.453,7.697,7.697,7.697H883.73c4.245,0,7.697-3.453,7.697-7.697V722.262c0-4.245-3.452-7.697-7.697-7.697H709.177z"/>
			</g>
			<g>
				<g>
					<ellipse style="fill:#EDC3B4;" cx="794.66" cy="670.547" rx="34.133" ry="30.448"/>
				</g>
				<g>
					<path style="fill:#D3ACA4;" d="M785.194,692.6c19.017,0,34.434-14.264,34.434-31.859c0-6.574-2.155-12.681-5.843-17.755
						c8.582,5.794,14.181,15.144,14.181,25.726c0,17.595-15.416,31.859-34.434,31.859c-11.912,0-22.408-5.598-28.591-14.104
						C770.629,690.307,777.614,692.6,785.194,692.6z"/>
				</g>
				<g>
					<path style="fill:#424243;" d="M757.771,670.546c0-18.19,16.549-32.987,36.89-32.987c20.34,0,36.887,14.797,36.887,32.987
						c0,18.19-16.547,32.987-36.887,32.987C774.32,703.533,757.771,688.736,757.771,670.546z M763.281,670.546
						c0,15.389,14.077,27.909,31.38,27.909c17.3,0,31.377-12.52,31.377-27.909c0-15.389-14.077-27.909-31.377-27.909
						C777.358,642.638,763.281,655.157,763.281,670.546z"/>
				</g>
			</g>
		</g>
		<g>
			<g>
				<path style="fill:#FFFFFF;" d="M388.774,574.795c-43.619,0.577-74.238,16.358-74.001,35.324
					c0.237,18.965,31.238,33.932,74.858,33.355c17.669-0.234,33.949-2.973,47.053-7.409l-0.687-55.107
					C422.786,576.87,406.443,574.562,388.774,574.795z"/>
				<path style="fill:#272525;" d="M438.82,636.869c-0.234,0.66-0.748,1.193-1.424,1.422c-13.871,4.695-30.376,7.297-47.738,7.528
					c-21.136,0.28-40.546-3.113-54.646-9.552c-14.391-6.568-22.386-15.843-22.513-26.121c-0.265-20.919,32.52-37.112,76.246-37.693
					l0,0c17.366-0.229,33.931,1.936,47.905,6.265c0.952,0.292,1.606,1.187,1.62,2.213l0.688,55.108
					C438.961,636.326,438.913,636.606,438.82,636.869z M317.959,604.674c-0.623,1.759-0.935,3.569-0.911,5.416
					c0.101,8.336,7.136,16.111,19.806,21.894c13.516,6.17,32.252,9.42,52.749,9.15c16.238-0.216,31.681-2.551,44.783-6.767
					l-0.644-51.649c-13.194-3.868-28.693-5.797-44.943-5.581l0,0C352.502,577.616,323.399,589.315,317.959,604.674z"/>
			</g>
			<g>
				<path style="fill:#404041;" d="M436.684,636.065c19.246-6.515,31.639-16.692,31.499-27.975
					c-0.141-11.283-12.783-21.128-32.186-27.133L436.684,636.065z"/>
				<path style="fill:#272525;" d="M469.388,614.391c-3.373,9.523-14.608,18.008-31.992,23.899c-0.69,0.235-1.445,0.115-2.033-0.318
					c-0.588-0.433-0.944-1.13-0.953-1.877l-0.688-55.108c-0.004-0.74,0.327-1.45,0.906-1.898c0.579-0.448,1.33-0.587,2.023-0.371
					c21.333,6.598,33.655,17.294,33.805,29.344C470.482,610.208,470.12,612.326,469.388,614.391z M438.917,632.797
					c17.082-6.372,27.11-15.466,26.99-24.679c-0.113-9.198-10.364-18.038-27.597-23.95L438.917,632.797z"/>
			</g>
			<g>
				
					<ellipse transform="matrix(0.9999 -0.0157 0.0157 0.9999 -9.4993 5.7587)" style="fill:#4F74A5;" cx="362.987" cy="609.481" rx="23.116" ry="20.212"/>
				<path style="fill:#272525;" d="M387.213,616.162c-3.21,9.061-12.692,15.722-23.943,15.875
					c-13.998,0.183-25.515-9.786-25.671-22.222c-0.075-6.093,2.544-11.839,7.37-16.173c4.727-4.241,11.025-6.625,17.739-6.713l0,0
					c6.711-0.09,13.064,2.129,17.894,6.242c4.935,4.206,7.698,9.878,7.774,15.979C388.405,611.587,387.997,613.949,387.213,616.162z
					 M343.042,604.357c-0.613,1.73-0.919,3.547-0.893,5.398c0.122,9.855,9.57,17.748,21.063,17.596
					c11.491-0.148,20.742-8.305,20.613-18.143c-0.056-4.701-2.232-9.116-6.123-12.431c-3.998-3.404-9.301-5.241-14.94-5.165l0,0
					c-5.634,0.073-10.891,2.048-14.803,5.557C345.652,599.24,343.985,601.697,343.042,604.357z"/>
			</g>
		</g>
	</g>
	<g>
		<g id="XMLID_2594_" style="opacity:0.48;">
			<g id="XMLID_2595_">
				<g id="XMLID_2596_">
					<g>
						<g>
							<g>
								<g>
									<g>
										<g>
											<g>
												<g>
													<g>
														<g>
															<g>
																<path style="fill:#484849;" d="M720.131,1052.307H495.026c-2.086,0-3.794-2.481-3.794-5.513l0,0
																	c0-3.032,1.707-5.513,3.794-5.513h225.105c2.087,0,3.794,2.48,3.794,5.513l0,0
																	C723.925,1049.826,722.218,1052.307,720.131,1052.307z"/>
															</g>
														</g>
													</g>
												</g>
											</g>
										</g>
									</g>
								</g>
							</g>
						</g>
					</g>
				</g>
			</g>
		</g>
		<g id="XMLID_2591_" style="opacity:0.48;">
			<g id="XMLID_2592_">
				<g id="XMLID_2593_">
					<g>
						<g>
							<g>
								<g>
									<g>
										<g>
											<g>
												<g>
													<g>
														<g>
															<g>
																<path style="fill:#484849;" d="M741.377,1052.307h-5.564c-2.087,0-3.794-2.481-3.794-5.513l0,0
																	c0-3.032,1.707-5.513,3.794-5.513h5.564c2.086,0,3.794,2.48,3.794,5.513l0,0
																	C745.171,1049.826,743.463,1052.307,741.377,1052.307z"/>
															</g>
														</g>
													</g>
												</g>
											</g>
										</g>
									</g>
								</g>
							</g>
						</g>
					</g>
				</g>
			</g>
		</g>
		<g id="XMLID_2588_" style="opacity:0.48;">
			<g id="XMLID_2589_">
				<g id="XMLID_2590_">
					<g>
						<g>
							<g>
								<g>
									<g>
										<g>
											<g>
												<g>
													<g>
														<g>
															<g>
																<path style="fill:#484849;" d="M869.894,1086.288H650.86c-2.226,0-4.047-2.646-4.047-5.88l0,0
																	c0-3.234,1.821-5.88,4.047-5.88h219.035c2.226,0,4.047,2.646,4.047,5.88l0,0
																	C873.942,1083.642,872.12,1086.288,869.894,1086.288z"/>
															</g>
														</g>
													</g>
												</g>
											</g>
										</g>
									</g>
								</g>
							</g>
						</g>
					</g>
				</g>
			</g>
		</g>
		<g id="XMLID_2585_" style="opacity:0.48;">
			<g id="XMLID_2586_">
				<g id="XMLID_2587_">
					<g>
						<g>
							<g>
								<g>
									<g>
										<g>
											<g>
												<g>
													<g>
														<g>
															<g>
																<path style="fill:#484849;" d="M877.889,1069.814h-10.117c-2.226,0-4.047-2.646-4.047-5.88l0,0
																	c0-3.234,1.821-5.88,4.047-5.88h10.117c2.226,0,4.047,2.646,4.047,5.88l0,0
																	C881.936,1067.168,880.115,1069.814,877.889,1069.814z"/>
															</g>
														</g>
													</g>
												</g>
											</g>
										</g>
									</g>
								</g>
							</g>
						</g>
					</g>
				</g>
			</g>
		</g>
	</g>
	<ellipse style="opacity:0.49;fill:#484849;" cx="330.069" cy="1058.054" rx="82.876" ry="12.764"/>
</g>
</svg>
